<svg xmlns="http://www.w3.org/2000/svg" viewBox="0 0 1040 1067"><path id="jp-26" d="M554.9,518.8L550.7,519.9L550.3,518.4L548.1,516.3L548.6,513.0L551.2,513.4L553.1,511.5L554.5,511.6L556.0,510.8L557.0,509.3L562.2,507.5L565.4,511.6L565.1,513.1L564.6,512.5L563.8,512.9L560.9,517.4L560.9,518.9L563.2,516.1L563.1,517.5L563.9,517.9L562.8,517.9L562.8,519.1L564.4,520.1L566.0,520.0L565.5,523.1L566.7,521.1L568.6,521.9L568.5,520.2L566.6,520.6L566.5,518.4L569.7,517.7L570.0,516.6L571.1,516.0L570.7,517.7L572.0,518.2L570.6,519.8L571.5,520.7L570.9,522.5L572.3,524.5L573.4,524.7L573.5,526.7L577.8,527.3L580.0,528.5L582.6,527.9L584.9,531.7L585.9,531.1L584.8,534.4L585.8,537.6L584.9,542.0L584.2,542.6L584.9,544.2L584.3,544.2L586.5,547.3L586.0,550.0L587.2,551.0L588.9,549.9L589.0,551.9L590.0,552.6L591.2,552.3L592.2,553.4L591.5,554.6L593.2,557.3L592.1,558.8L590.5,558.4L590.1,557.2L588.2,557.2L588.2,556.4L586.8,558.7L581.7,557.7L580.7,555.3L581.3,554.1L579.5,552.0L578.7,549.6L577.0,547.8L575.9,548.1L576.4,546.1L574.9,546.0L574.2,547.6L575.1,547.7L575.1,548.3L573.6,548.7L572.6,547.3L571.3,547.0L571.6,545.0L567.6,544.1L567.1,542.0L568.5,540.4L568.0,538.5L566.2,538.1L566.1,537.4L563.9,537.6L564.2,536.5L563.6,536.1L561.0,536.8L560.3,536.3L560.7,534.8L559.1,533.7L559.3,532.1L557.4,531.8L555.8,533.1L555.4,531.8L553.6,531.5L553.2,530.5L550.5,529.5L550.9,524.9L551.8,524.9L553.0,526.0L555.2,525.0L554.9,518.8Z"/><path id="jp-41" d="M351.8,601.5L351.3,600.9L351.9,600.0L351.8,601.5ZM347.7,602.3L347.3,601.4L348.3,601.9L347.7,602.3ZM352.1,603.6L352.5,602.5L352.9,603.0L352.1,603.6ZM358.3,607.5L367.6,607.8L372.0,610.6L372.5,612.1L376.0,610.0L377.5,610.4L377.2,614.9L374.9,615.3L375.2,616.2L373.9,616.6L374.3,617.3L373.5,618.4L372.9,617.0L372.2,618.8L371.3,618.4L370.4,619.2L370.6,620.3L369.0,621.0L369.5,624.0L366.9,623.5L365.4,620.7L365.4,621.2L364.2,620.8L364.8,621.4L364.3,622.4L361.3,624.7L360.3,624.1L359.9,625.2L360.9,625.6L362.5,630.6L363.7,631.4L363.2,632.2L358.4,631.0L355.5,628.7L355.0,627.3L352.4,625.1L352.6,624.3L353.7,624.0L353.4,621.7L351.3,621.9L348.7,620.4L348.7,617.6L346.7,615.2L348.1,612.9L349.7,615.6L350.4,615.4L349.5,614.4L350.4,613.6L349.6,613.2L350.4,613.3L351.4,610.0L349.7,609.6L350.0,609.2L348.3,607.5L349.2,607.5L348.7,606.8L349.3,606.1L350.4,607.3L350.3,608.2L351.2,607.8L350.9,606.7L350.2,606.6L350.7,606.6L350.2,604.7L351.3,605.3L350.7,604.5L351.4,604.7L351.1,602.9L352.1,603.9L352.1,604.9L353.0,603.4L354.2,603.4L355.3,604.5L355.6,605.5L354.3,606.8L355.0,607.3L355.4,606.7L355.4,608.0L357.4,608.6L358.3,607.5Z"/><path id="jp-43" d="M399.1,623.9L400.9,626.1L401.3,628.8L402.8,630.2L403.2,632.3L404.5,634.1L403.7,634.9L403.9,638.0L406.6,641.0L404.1,641.2L402.8,643.2L402.7,645.0L400.4,646.4L400.1,648.2L398.9,647.9L397.7,649.5L397.2,652.2L395.0,651.9L393.5,653.8L393.3,658.8L394.1,660.3L395.1,660.4L395.2,662.8L396.6,664.3L395.2,666.4L394.1,666.1L393.6,667.8L395.8,670.2L396.0,672.2L394.0,672.3L392.3,671.3L390.5,673.7L388.9,673.8L387.8,672.9L385.8,674.4L381.9,674.3L379.7,673.7L377.9,671.4L376.7,671.1L376.1,669.6L375.1,671.1L373.5,671.2L373.4,671.8L370.9,671.5L369.9,672.7L368.0,672.2L366.4,669.3L367.2,669.5L367.0,668.2L368.3,666.8L369.8,666.8L369.4,665.5L370.3,664.4L370.9,665.0L371.0,664.1L371.2,664.6L371.9,664.2L371.1,662.7L372.8,661.5L372.2,660.9L375.7,657.9L375.7,655.9L374.8,655.8L374.7,654.9L375.9,654.3L374.7,653.1L378.6,650.1L378.0,649.4L379.4,649.7L379.7,648.8L379.4,648.3L371.8,649.4L371.9,648.2L378.0,644.8L377.4,642.4L378.4,641.1L377.2,639.3L377.4,638.7L375.1,638.1L375.3,636.8L372.9,635.6L372.8,634.7L372.2,634.9L371.9,631.0L371.3,630.6L374.9,630.9L374.7,628.5L377.5,627.1L378.2,625.8L381.2,626.2L382.2,623.4L382.6,624.3L384.2,624.3L388.5,627.6L390.1,627.9L390.4,629.0L393.8,631.2L395.4,628.2L393.8,625.6L394.5,623.6L397.1,623.3L399.1,623.9ZM370.1,652.2L369.4,651.9L370.0,650.5L369.1,650.2L369.9,648.9L370.4,649.5L370.2,648.8L371.1,648.5L371.7,649.1L371.0,649.9L371.7,650.3L371.0,651.2L371.3,651.9L370.1,652.2ZM372.8,651.0L372.3,649.6L373.7,649.6L372.8,651.0ZM371.7,652.6L372.2,650.4L372.7,651.2L371.7,652.6ZM366.9,658.7L366.8,657.9L365.9,658.9L363.3,658.1L362.2,659.3L362.7,658.2L361.4,657.0L360.6,659.0L361.6,658.9L361.7,660.1L360.8,662.0L359.5,662.6L359.7,661.3L359.0,661.4L358.1,663.1L359.2,663.2L356.1,665.0L356.2,666.2L355.7,665.5L355.4,666.9L354.0,667.5L353.5,666.7L353.1,667.9L351.9,667.5L352.8,665.6L352.0,665.3L352.4,664.8L351.2,665.2L352.3,663.3L353.6,662.6L353.8,663.9L353.7,662.7L354.6,662.5L355.0,663.8L355.4,662.8L353.7,661.9L352.4,662.3L351.8,661.1L351.9,659.8L355.1,653.8L354.2,651.6L354.9,651.6L355.1,652.7L358.1,651.2L360.8,651.5L361.0,656.2L364.7,654.8L365.9,653.3L368.5,653.1L368.8,654.3L369.9,653.2L371.6,653.1L369.2,657.4L369.7,657.6L368.9,657.8L368.9,659.3L366.9,660.0L366.9,658.7ZM369.9,652.6L369.4,652.2L369.9,652.6ZM369.4,660.6L369.3,659.1L370.1,660.0L369.4,660.6ZM365.0,661.6L365.6,661.2L364.7,661.1L364.8,660.5L366.3,660.9L365.0,661.6ZM364.6,663.3L365.8,662.9L366.5,661.2L367.5,661.4L366.3,663.0L364.6,663.3ZM354.0,669.5L353.4,668.6L352.8,669.1L353.3,667.8L354.0,669.5Z"/><path id="jp-37" d="M526.9,564.4L528.1,564.5L527.3,565.2L527.9,566.0L526.9,570.5L526.2,569.3L524.6,569.8L525.1,569.1L526.1,569.3L525.4,568.3L524.3,568.8L522.8,571.3L522.8,568.2L521.5,567.9L519.8,569.0L519.4,568.6L520.1,567.5L520.9,567.8L520.0,566.9L520.7,565.8L521.2,566.4L524.2,564.8L526.9,564.4ZM514.3,567.1L514.9,566.7L514.8,568.0L514.3,567.1ZM517.0,569.0L515.4,567.8L517.2,567.1L518.0,567.5L517.0,569.0ZM513.6,569.6L512.8,567.9L514.4,569.2L513.6,569.6ZM516.0,571.0L516.2,570.2L516.0,571.0ZM501.0,572.1L500.5,570.8L501.4,570.8L501.0,572.1ZM515.4,572.7L516.0,571.4L515.4,572.7ZM504.7,572.9L504.3,571.5L505.3,571.4L506.0,572.0L504.7,572.9ZM502.2,573.6L501.7,573.0L502.8,571.3L503.4,572.7L502.2,573.6ZM518.7,583.6L518.2,585.2L515.4,585.1L513.3,587.1L512.3,587.1L511.1,585.1L507.0,585.8L506.4,586.9L504.8,586.7L502.5,589.2L500.9,589.6L497.8,588.0L499.2,586.8L500.0,581.0L496.6,577.7L497.8,577.8L499.0,579.0L501.0,578.5L501.0,579.7L503.5,577.8L503.3,577.1L504.9,576.7L504.5,576.1L505.1,576.6L505.3,575.7L505.7,576.4L505.6,575.8L507.2,575.1L506.8,573.7L507.7,573.4L507.2,574.2L508.3,573.5L507.4,575.1L509.4,574.4L509.8,572.4L510.8,572.7L511.1,572.1L513.8,574.0L516.1,574.2L516.5,573.6L516.4,574.3L516.8,573.6L516.8,574.3L517.4,572.5L518.5,573.7L518.5,571.9L519.1,571.9L520.1,572.6L520.1,575.4L521.1,575.1L520.8,574.2L522.0,574.3L521.9,573.4L522.8,574.9L523.4,574.3L524.0,575.0L523.3,576.4L523.8,577.6L525.5,577.9L526.8,579.0L528.2,578.7L530.6,581.3L529.7,583.7L527.0,582.3L526.8,582.9L525.0,583.0L523.6,582.3L520.2,582.5L518.7,583.6ZM499.2,574.5L499.1,573.4L499.2,574.5ZM501.3,575.8L500.8,574.8L501.3,575.8ZM499.1,578.0L499.2,576.6L499.8,577.3L500.4,576.9L499.1,578.0Z"/><path id="jp-23" d="M627.9,525.5L629.1,525.0L628.6,525.9L631.2,527.8L631.2,529.2L632.0,529.2L632.5,531.3L633.3,530.8L635.7,531.7L636.5,533.1L641.1,531.3L642.6,532.2L642.5,532.9L644.0,532.7L644.2,533.7L645.3,533.7L645.8,534.5L649.2,531.6L651.0,531.3L650.2,533.0L651.5,535.6L654.0,535.1L655.4,533.9L658.4,534.5L659.0,535.3L661.3,534.9L660.0,536.3L661.0,537.7L659.6,538.6L660.0,540.0L656.8,543.3L656.4,546.3L654.7,547.6L653.9,550.1L652.3,551.1L651.9,552.2L648.6,553.0L648.1,554.0L648.0,560.5L635.0,564.5L630.1,565.1L632.3,561.1L634.0,562.4L634.8,561.9L634.4,561.4L638.0,560.5L638.8,559.0L639.4,559.5L640.3,557.8L641.0,558.0L641.0,559.6L640.3,560.3L641.2,560.3L641.9,559.2L641.3,559.3L641.2,558.1L642.9,558.0L641.7,557.8L642.1,555.5L640.8,554.1L639.0,554.3L637.7,553.5L636.0,556.2L635.9,555.2L630.5,555.7L629.3,553.8L627.5,553.5L628.8,550.2L628.7,547.0L628.0,551.1L627.3,550.8L626.7,551.5L626.1,556.0L628.0,557.7L628.3,559.5L625.0,558.2L623.3,556.3L624.3,552.9L623.2,550.6L622.6,550.6L622.5,546.7L623.5,544.7L624.4,544.7L623.8,544.3L624.4,542.1L625.5,541.1L624.3,540.7L623.5,543.5L623.7,541.4L622.9,541.2L622.5,542.1L623.0,542.0L623.2,543.6L622.2,543.9L622.4,542.7L621.7,542.7L621.8,543.7L621.0,543.5L621.5,544.4L620.6,544.1L619.7,541.2L616.9,538.7L617.1,533.7L620.7,527.6L623.1,528.2L626.4,527.1L627.9,526.2L627.9,525.5ZM622.2,545.3L621.8,544.9L622.6,544.3L622.2,545.3ZM622.1,552.7L621.9,550.9L622.7,552.2L622.1,552.7ZM641.2,555.3L641.5,554.7L641.8,555.2L641.2,555.3ZM631.3,558.6L630.9,557.8L631.3,558.6ZM629.6,560.9L629.7,560.0L629.6,560.9Z"/><path id="jp-09" d="M739.3,441.2L746.0,443.2L748.1,445.2L748.6,447.0L750.2,446.9L750.0,450.5L750.9,451.3L750.4,451.9L751.2,456.5L750.9,459.3L752.4,461.7L749.7,463.1L751.5,471.0L750.4,471.7L748.9,476.8L746.8,476.0L745.7,477.1L744.4,476.6L743.6,478.0L741.5,478.5L740.9,478.0L740.7,479.3L738.8,480.0L738.7,481.7L737.5,480.7L736.4,481.3L735.5,484.7L732.0,486.6L731.6,486.2L730.1,486.7L728.3,484.2L728.7,483.6L725.7,483.7L724.3,482.9L722.0,483.6L720.1,481.5L720.2,480.5L718.3,479.2L718.7,476.8L719.7,474.8L720.7,474.5L720.0,472.7L720.7,470.5L722.3,468.8L721.6,467.7L719.1,468.0L716.6,466.8L716.7,463.7L718.0,461.2L717.2,459.9L719.1,457.2L717.0,456.1L717.2,454.9L719.1,452.5L719.8,452.6L721.0,450.5L723.8,449.8L725.5,448.2L728.5,446.9L728.8,446.1L731.7,445.3L732.5,444.3L734.3,444.6L734.0,443.0L735.8,441.6L739.3,441.2Z"/><path id="jp-19" d="M681.1,498.7L683.8,499.5L684.3,502.0L685.0,502.1L686.4,500.9L689.5,501.0L690.3,501.5L690.2,503.1L692.7,503.3L693.4,501.9L694.7,501.4L696.6,501.8L697.9,503.5L699.2,503.3L700.9,504.6L702.9,503.8L706.1,510.2L710.1,512.3L709.6,513.2L710.2,517.5L709.4,519.0L703.0,523.1L702.2,525.4L701.2,526.1L693.3,527.6L692.6,525.7L690.6,525.9L689.5,523.5L688.6,524.0L687.6,525.4L687.8,529.0L687.0,529.8L687.8,535.1L686.3,536.7L682.7,535.2L681.1,529.7L680.0,529.2L678.3,530.3L677.2,529.7L676.3,527.0L677.2,525.5L676.7,523.2L677.5,520.3L676.1,514.5L674.7,513.0L674.1,511.0L676.2,508.9L674.2,507.1L676.2,503.0L677.9,504.0L681.1,498.7Z"/><path id="jp-25" d="M597.2,511.9L598.6,511.6L602.2,513.7L602.5,515.6L603.8,515.8L603.5,519.1L604.6,519.6L605.6,518.5L606.7,519.9L606.1,521.9L607.4,522.9L607.0,525.2L608.3,526.6L607.1,527.4L606.4,532.8L605.7,533.5L607.1,534.7L606.9,536.2L608.6,537.8L607.9,538.9L608.1,542.0L607.2,542.7L607.0,546.0L605.4,547.8L605.1,549.5L600.7,551.7L598.0,550.4L596.1,550.5L595.4,549.6L594.4,550.7L596.0,551.5L594.4,552.6L594.6,553.8L592.1,554.8L591.5,554.4L592.2,553.4L591.3,552.4L589.0,551.9L588.9,549.9L587.2,551.0L586.0,550.0L586.5,547.3L585.4,545.3L584.6,545.2L584.8,543.8L584.2,542.6L584.9,542.0L585.8,537.6L584.8,534.4L586.0,531.4L584.9,531.7L584.1,529.8L582.4,528.5L584.4,525.2L585.8,525.3L586.1,526.1L587.2,525.7L589.2,520.2L590.7,521.8L591.7,521.6L592.5,519.8L594.1,520.0L594.6,519.3L595.5,519.9L595.8,517.3L597.9,518.2L598.2,516.7L596.6,513.2L597.2,511.9Z"/><path id="jp-10" d="M691.1,477.6L689.1,477.0L686.9,478.1L685.4,477.6L685.3,478.2L681.9,476.7L682.8,469.0L684.5,466.7L686.4,466.3L686.8,465.6L686.0,464.5L693.3,462.0L693.8,460.8L696.2,461.7L697.6,460.4L697.3,458.2L701.3,457.4L701.1,455.0L703.1,454.6L702.6,450.5L705.6,450.0L707.2,448.4L707.4,446.6L710.2,449.3L710.6,451.0L712.4,451.1L712.9,452.5L713.8,452.0L718.6,453.3L717.0,456.1L719.1,457.2L717.2,459.9L718.0,461.2L716.7,463.7L716.4,466.5L719.1,468.0L721.6,467.7L722.3,468.8L720.7,470.5L720.0,472.7L720.7,474.5L719.7,474.8L718.7,476.8L718.3,479.2L720.2,480.5L720.1,481.5L722.0,483.6L724.3,482.9L725.7,483.7L727.9,483.3L728.7,483.6L728.3,484.2L729.8,486.2L728.1,487.4L726.7,486.4L721.8,487.4L718.1,484.6L716.8,485.7L709.4,483.3L707.0,487.5L706.3,490.7L704.9,490.6L704.2,491.4L703.1,491.0L702.7,492.4L699.7,493.3L698.3,495.2L695.6,495.4L694.0,497.8L690.9,495.8L691.4,491.5L689.6,490.6L688.8,489.2L689.2,488.7L690.0,489.5L691.0,488.9L689.5,484.0L691.5,482.8L691.1,477.6Z"/><path id="jp-04" d="M791.7,352.4L792.6,351.2L797.1,352.5L798.9,357.4L798.3,357.6L797.4,355.8L796.3,356.8L795.2,355.7L796.4,359.3L793.5,361.3L793.3,362.1L794.5,363.9L795.1,363.5L795.1,365.9L793.8,364.7L793.3,366.3L792.6,366.1L792.8,366.8L791.0,366.9L791.0,368.4L794.1,368.5L794.0,369.8L791.7,371.5L793.2,373.5L794.4,372.7L794.9,374.8L794.3,375.5L793.8,374.4L792.2,374.1L793.3,375.3L792.6,376.8L793.9,377.4L793.3,378.0L791.6,377.9L792.6,378.9L792.6,380.1L793.6,379.1L794.1,380.1L795.0,379.7L794.7,380.6L794.0,380.2L793.0,380.9L794.2,381.2L795.0,382.5L794.8,385.8L793.7,384.3L791.9,383.9L792.8,383.1L792.3,382.2L790.7,382.4L792.1,381.1L791.2,381.2L791.1,379.9L789.0,380.8L788.4,379.4L785.0,379.3L781.3,382.0L782.0,384.1L781.0,383.5L780.6,384.1L781.0,382.4L780.3,381.5L779.3,381.1L779.3,382.0L778.5,381.4L777.7,382.0L777.9,382.8L777.0,383.0L777.4,383.7L776.4,384.4L777.2,384.4L776.9,385.0L778.3,384.3L778.8,385.2L777.1,386.6L776.6,386.2L775.6,386.6L777.3,387.0L776.5,387.0L775.2,389.3L773.4,395.6L773.0,400.0L773.9,404.6L771.1,405.0L771.3,409.1L768.3,409.1L767.9,409.6L769.4,410.3L769.0,410.7L766.6,410.4L765.3,409.4L764.7,407.8L765.0,405.4L763.9,404.8L762.6,404.9L762.1,404.2L761.4,404.7L760.4,403.9L757.6,405.1L757.0,402.9L754.5,401.7L753.7,402.7L752.5,402.9L749.8,401.7L749.6,398.0L753.1,397.8L754.8,396.3L754.8,394.8L756.8,391.8L756.3,387.6L757.2,386.9L757.4,385.4L758.3,385.1L758.2,383.3L760.0,381.6L760.0,379.5L761.4,378.6L759.3,376.0L758.9,374.5L759.7,373.3L758.1,370.2L758.4,369.4L760.4,369.8L761.1,367.3L760.5,366.0L761.8,363.7L760.3,363.0L759.7,360.6L757.8,359.4L758.0,358.1L758.5,358.8L760.4,357.7L761.3,358.2L765.1,354.6L767.9,354.2L770.0,355.7L772.8,356.6L773.9,358.1L777.8,357.3L779.5,357.7L779.7,358.8L778.3,359.7L778.3,360.4L779.6,360.8L780.0,362.1L781.2,362.1L783.2,363.7L784.5,361.4L785.6,361.5L785.8,360.1L788.9,361.0L789.5,362.5L790.5,361.7L790.1,360.4L791.2,360.2L791.3,358.2L790.7,357.3L792.1,355.3L791.7,352.4ZM797.1,359.2L796.2,357.2L797.0,356.5L797.1,359.2ZM794.5,378.0L794.0,376.7L794.5,378.0ZM780.0,384.0L780.2,382.9L780.0,384.0ZM796.6,385.9L795.6,384.3L796.2,383.8L797.1,384.3L796.6,385.9ZM790.5,385.4L790.7,384.1L791.3,385.0L790.5,385.4ZM794.0,387.1L792.4,386.1L792.4,385.4L794.0,387.1Z"/><path id="jp-22" d="M675.6,514.2L677.5,520.3L676.7,523.2L677.2,525.5L676.3,527.0L677.0,527.6L676.9,529.1L678.3,530.3L680.0,529.2L681.1,529.7L682.7,535.2L684.3,536.3L686.3,536.7L687.8,535.1L687.0,529.8L687.8,529.0L687.7,525.2L689.5,523.5L690.6,525.9L692.6,525.7L693.3,527.6L698.7,526.7L699.8,525.9L700.6,526.3L702.2,525.4L705.5,525.4L706.2,528.6L704.7,533.1L706.8,537.1L709.9,537.5L708.4,541.5L709.6,542.0L709.6,543.9L709.0,544.1L709.5,545.4L711.4,546.3L711.6,547.2L711.3,549.4L709.1,551.2L707.9,555.3L706.0,556.5L705.1,559.0L705.7,560.5L704.5,560.7L704.8,559.8L704.2,559.8L702.6,562.0L700.2,563.3L697.7,561.5L698.0,560.1L696.1,559.2L696.1,557.5L697.5,556.2L696.5,553.1L697.4,551.3L696.6,550.0L697.9,548.8L696.8,546.2L697.4,543.6L697.8,543.0L701.6,543.6L702.2,542.1L701.5,542.2L699.2,539.4L693.7,537.7L694.2,538.1L688.8,539.8L688.0,542.0L686.5,543.1L686.9,545.3L686.9,543.9L688.0,544.0L687.3,545.4L681.3,548.8L680.1,550.9L680.7,552.7L678.8,555.1L679.3,555.6L676.5,557.7L675.4,560.5L675.3,562.0L676.5,564.0L670.2,561.6L670.2,561.1L670.0,561.6L664.0,560.7L660.1,561.8L658.0,560.7L658.1,561.3L651.9,560.3L648.0,560.5L648.1,554.0L648.6,553.0L651.9,552.2L652.3,551.1L653.9,550.1L654.7,547.6L656.4,546.3L656.8,543.3L660.0,540.0L659.6,538.6L661.0,537.7L660.0,536.3L661.0,534.9L662.6,534.6L663.0,533.2L664.4,532.8L664.8,531.9L668.2,530.6L669.6,528.6L670.8,528.8L672.8,527.3L673.2,526.0L671.9,523.6L673.5,522.5L673.6,521.4L672.7,521.2L672.6,520.1L673.4,519.0L672.7,518.5L673.5,517.3L674.5,517.4L675.6,514.2Z"/><path id="jp-08" d="M762.2,450.7L762.9,450.3L764.1,452.2L770.2,453.7L771.3,455.4L770.0,455.9L769.2,457.8L768.3,463.5L764.7,472.0L764.6,474.2L765.4,474.6L764.7,474.6L764.8,475.8L765.4,477.0L764.1,480.4L763.3,480.7L763.2,483.0L765.4,491.0L769.1,497.9L768.2,498.8L767.6,498.4L768.1,499.9L768.8,500.5L768.2,499.1L769.3,498.5L774.9,507.0L773.9,507.1L771.1,505.2L769.4,502.7L766.6,501.7L765.3,499.7L761.9,497.2L761.0,498.6L761.6,499.7L759.9,498.8L756.5,500.1L754.7,501.9L753.3,501.5L751.9,502.4L748.3,503.0L747.3,501.7L745.4,501.6L740.3,498.8L740.1,497.5L738.2,496.5L734.3,491.2L733.8,492.3L732.2,492.0L730.6,488.0L730.6,486.4L732.0,486.6L735.5,484.7L736.4,481.3L737.5,480.7L738.7,481.7L738.8,480.0L740.7,479.3L740.9,478.0L741.5,478.5L743.6,478.0L744.4,476.6L745.7,477.1L746.8,476.0L747.8,476.8L749.1,476.5L750.4,471.7L751.5,471.0L749.7,463.1L752.4,461.7L751.0,459.6L750.5,451.6L752.2,451.4L753.3,453.1L754.9,453.6L755.3,455.6L757.6,456.3L758.6,457.7L761.3,454.4L763.2,453.7L762.2,450.7Z"/><path id="jp-47" d="M263.5,864.6L263.1,863.4L263.5,864.6ZM247.2,903.7L248.0,901.5L251.2,899.4L247.2,903.7ZM247.0,907.6L246.0,906.3L247.1,905.6L247.8,906.6L247.0,907.6ZM255.2,917.5L255.2,916.2L256.4,916.2L258.8,914.1L259.8,910.8L260.5,910.7L261.5,912.3L262.1,912.1L262.6,916.5L260.0,920.1L258.2,921.8L254.6,921.5L254.5,923.0L253.4,922.7L254.4,924.4L253.8,925.0L251.9,925.7L249.3,924.6L250.0,926.2L247.6,926.5L247.7,927.6L245.5,928.0L245.3,929.6L242.0,928.4L240.3,929.4L242.0,932.0L242.2,933.8L243.5,934.5L243.5,936.1L241.3,933.6L240.1,934.1L240.4,934.8L238.8,935.5L239.0,936.5L237.5,938.7L236.7,939.8L236.1,939.6L236.8,941.2L238.8,940.5L239.1,941.6L234.2,944.7L231.4,945.0L232.0,942.6L231.2,941.9L232.1,941.7L231.2,941.6L231.6,940.7L230.9,939.4L231.7,938.6L232.6,939.2L232.1,938.7L233.1,938.4L232.5,937.3L235.8,936.0L236.7,934.8L235.2,928.5L236.2,929.5L237.8,928.5L238.9,929.0L241.1,927.2L241.1,926.1L244.4,925.8L245.0,924.7L246.3,924.9L247.3,923.5L247.3,922.8L245.9,922.0L243.7,921.6L243.2,919.9L244.0,919.1L243.2,917.7L243.6,916.7L246.7,917.1L248.7,918.2L247.6,919.9L249.3,921.1L253.1,919.6L253.8,920.1L252.8,919.1L255.2,917.5ZM240.5,916.6L238.3,916.2L238.3,915.1L240.7,915.1L241.5,916.0L240.5,916.6ZM249.4,918.0L249.2,917.1L249.8,917.3L249.4,918.0ZM249.7,920.3L248.2,919.0L249.3,918.7L249.7,920.3ZM242.5,920.4L242.2,919.4L242.8,919.3L242.5,920.4ZM214.6,920.1L215.7,919.0L216.3,919.7L214.6,920.1ZM247.1,932.4L247.2,931.6L247.1,932.4ZM193.1,928.5L192.6,927.4L195.6,926.7L197.3,929.0L196.4,929.8L196.4,931.5L195.1,930.6L194.5,928.9L193.1,928.5ZM244.1,934.5L244.7,933.3L246.6,932.3L246.9,933.4L244.1,934.5ZM210.9,930.3L211.0,928.8L211.6,929.7L210.9,930.3ZM199.9,929.3L199.2,929.2L199.9,929.3ZM240.4,934.0L241.2,933.6L241.5,934.3L240.4,934.0ZM245.1,935.6L244.9,934.7L245.5,935.0L245.1,935.6ZM244.1,938.7L244.0,937.7L244.1,938.7ZM217.0,937.0L216.1,936.4L217.3,935.6L218.2,936.7L217.4,936.2L217.0,937.0ZM218.5,940.6L218.3,938.9L219.2,936.9L219.8,938.1L218.5,940.6ZM222.6,938.5L223.2,937.4L222.6,938.5ZM217.2,938.0L217.1,937.2L217.2,938.0ZM215.6,938.4L215.2,937.9L215.9,937.2L216.3,938.1L215.6,938.4ZM214.0,939.4L213.9,938.5L214.0,939.4ZM241.3,942.6L242.4,941.9L241.3,942.6ZM386.1,964.5L385.3,962.9L387.3,963.4L386.1,964.5ZM382.6,969.6L381.9,969.2L382.3,967.2L384.1,967.1L384.0,969.2L382.6,969.6ZM51.2,939.1L52.0,938.4L52.7,938.9L51.2,939.1ZM122.4,986.9L121.7,986.2L122.5,986.2L122.4,986.9ZM123.7,996.8L121.6,994.5L122.1,994.0L122.1,994.8L122.9,994.9L122.0,992.7L124.0,990.6L122.6,987.4L124.3,989.1L125.4,992.9L129.3,995.2L130.7,997.3L126.5,996.4L123.7,996.8ZM118.9,991.6L117.9,990.3L118.4,989.0L120.6,991.0L120.3,991.9L118.9,991.6ZM118.9,991.6L117.3,991.6L117.2,989.9L118.9,991.6ZM97.9,991.9L96.9,991.2L97.9,991.9ZM121.2,996.5L120.9,995.6L121.6,996.1L121.2,996.5ZM96.8,996.7L95.9,996.3L96.1,995.2L98.3,995.6L97.9,996.6L96.8,996.7ZM72.6,1008.0L70.0,1006.0L71.7,1004.0L70.7,1002.9L69.2,1003.5L68.6,1002.7L69.1,1001.8L70.9,1002.3L70.9,1000.7L72.0,1001.7L71.7,1002.7L75.3,1002.6L75.9,1000.6L77.2,999.8L78.1,1000.5L79.0,999.1L78.6,998.1L80.2,996.0L81.3,996.4L79.4,999.7L76.7,1002.2L75.9,1007.1L75.3,1007.7L73.7,1007.1L72.6,1008.0ZM23.3,995.8L20.0,994.8L21.4,993.9L23.5,994.2L24.8,994.9L23.3,995.8ZM59.1,1009.6L52.9,1006.6L52.6,1007.6L51.0,1007.2L50.3,1005.9L51.4,1005.9L51.5,1004.9L52.4,1005.9L52.4,1004.3L54.2,1006.2L54.2,1004.8L54.8,1004.7L54.4,1002.5L56.4,1000.7L57.6,1003.0L58.4,1002.4L60.1,1002.8L62.7,1005.0L61.8,1007.2L61.2,1006.6L60.6,1007.6L60.6,1008.9L59.7,1008.5L59.1,1009.6ZM54.0,1004.6L53.4,1003.7L54.0,1004.6ZM64.6,1007.2L63.1,1006.4L64.3,1005.7L65.2,1007.1L64.6,1007.2ZM68.5,1008.3L68.7,1007.0L69.3,1008.0L68.5,1008.3ZM64.9,1012.0L64.2,1011.1L64.5,1010.4L65.8,1011.0L64.9,1012.0ZM54.3,1018.7L52.7,1017.8L54.9,1017.8L54.3,1018.7Z"/><path id="jp-06" d="M721.3,345.4L721.4,344.1L722.0,344.6L721.3,345.4ZM733.1,348.0L737.6,348.5L738.1,347.6L740.0,347.1L740.1,349.0L743.4,351.0L745.0,350.4L745.2,351.6L747.4,351.5L749.1,352.4L749.8,351.4L751.0,351.8L751.6,353.3L754.2,353.9L754.8,356.7L756.3,357.9L757.6,357.5L757.8,359.4L759.7,360.6L760.3,363.0L761.8,363.7L760.5,366.0L761.1,367.3L760.4,369.8L758.4,369.4L758.1,370.2L759.7,373.3L758.9,374.5L759.3,376.0L761.4,378.6L760.0,379.5L760.0,381.6L758.2,383.3L758.3,385.1L757.4,385.4L757.2,386.9L756.3,387.6L756.8,391.8L754.8,394.8L754.6,396.7L753.1,397.8L749.6,398.0L750.1,400.3L749.4,408.5L750.8,409.7L748.6,412.7L746.0,412.3L744.2,413.4L741.6,411.4L739.6,412.4L737.5,409.2L735.6,410.1L734.6,409.3L732.8,410.5L731.8,409.2L730.3,409.8L729.3,408.2L728.0,408.6L726.0,406.4L726.8,399.7L728.1,398.6L728.1,397.8L727.4,397.7L728.2,391.7L731.4,392.1L734.0,390.1L735.4,387.2L733.5,384.9L729.9,384.2L728.8,382.6L728.2,382.7L728.6,377.7L724.1,376.6L721.9,375.0L724.5,369.4L727.4,366.6L729.6,363.2L731.2,356.3L732.1,355.8L731.5,355.6L733.2,350.4L733.1,348.0Z"/><path id="jp-30" d="M572.7,575.4L574.7,574.2L577.4,574.0L578.2,578.8L579.6,579.3L580.4,581.1L579.5,582.3L577.2,581.8L576.2,584.5L574.9,585.0L574.4,586.6L573.2,587.4L572.9,588.5L574.5,589.4L575.0,591.5L576.6,592.5L576.6,594.5L575.8,594.3L575.1,596.4L576.0,596.9L575.8,598.2L578.5,596.7L581.2,597.6L583.2,596.6L584.7,597.2L585.0,600.8L588.1,603.7L588.3,604.8L591.0,605.4L589.5,607.5L589.7,608.9L588.0,609.3L588.6,610.3L588.3,609.9L587.6,611.0L589.0,611.4L588.8,612.1L587.5,612.3L586.2,613.3L587.5,613.1L585.7,614.6L582.6,615.9L581.9,617.4L582.5,618.5L581.4,618.4L581.1,619.0L580.7,618.2L581.7,617.5L581.1,616.6L579.1,616.9L578.8,616.1L577.3,616.2L576.0,615.4L574.6,615.8L573.7,615.0L571.4,614.5L570.5,613.3L568.9,613.3L569.0,612.6L566.8,611.3L566.9,609.0L564.5,607.5L564.7,606.4L565.5,606.4L565.6,607.2L566.3,606.9L567.2,605.2L565.5,604.9L565.5,604.1L564.5,604.2L563.8,602.8L560.9,602.2L560.9,601.4L559.0,600.4L557.4,597.3L556.3,596.8L554.1,597.4L554.1,596.3L555.1,595.9L554.5,595.0L556.4,593.7L555.1,593.8L554.6,592.9L557.8,591.5L557.4,590.9L558.7,590.3L557.3,588.7L555.1,588.3L556.6,586.1L557.7,586.5L556.9,585.3L558.6,585.5L560.2,584.6L559.2,584.8L559.1,583.0L559.0,583.5L557.6,582.9L557.5,581.1L556.1,580.6L557.1,581.0L556.9,580.3L554.6,579.2L555.1,577.3L556.3,577.1L556.5,578.9L558.2,578.8L560.2,578.2L560.3,577.2L563.2,576.8L563.6,577.7L565.4,576.1L567.6,576.3L571.0,574.8L571.7,576.1L572.7,575.4ZM554.0,577.9L554.6,577.6L554.0,577.9ZM552.6,578.6L553.3,577.8L552.6,578.6ZM587.4,593.6L591.0,592.0L590.5,592.3L591.1,593.9L590.6,594.4L589.8,593.9L589.4,595.6L587.9,595.1L587.5,595.9L588.0,596.2L586.8,595.8L586.5,594.7L587.4,593.6ZM586.0,596.5L586.1,597.6L586.8,597.8L585.8,598.8L586.1,598.0L585.2,597.0L585.5,596.0L586.0,596.5ZM583.9,618.3L582.6,617.6L583.1,616.8L585.1,617.2L583.9,618.3Z"/><path id="jp-42" d="M336.4,560.5L335.7,560.0L336.2,561.1L335.1,562.2L336.9,561.1L335.8,563.1L336.6,563.5L335.4,564.2L336.5,564.8L335.4,564.5L335.8,565.8L335.2,565.4L334.7,566.5L334.1,565.4L334.9,565.4L334.5,563.6L335.1,562.8L333.9,562.9L333.2,564.4L333.5,562.0L332.4,562.1L332.4,564.2L332.2,563.5L332.2,564.0L330.2,563.0L330.8,562.7L331.1,563.4L332.1,562.6L332.3,559.4L333.0,559.8L333.9,558.4L332.7,559.1L332.4,558.1L333.9,555.5L334.1,556.0L334.4,555.0L335.4,555.2L334.0,553.5L333.2,553.8L334.9,549.7L335.3,550.3L336.1,549.8L337.8,550.4L337.3,549.9L338.3,548.7L339.3,548.9L338.7,548.0L340.0,547.4L341.7,549.4L340.4,549.9L341.4,550.4L340.8,551.7L339.7,550.9L339.9,551.9L339.1,551.5L340.7,552.7L340.4,554.6L336.0,559.1L336.4,560.5ZM336.6,564.8L336.7,563.6L336.6,564.8ZM334.1,566.0L333.4,565.0L332.5,565.0L332.8,564.4L333.5,565.0L333.9,564.5L334.1,566.0ZM328.6,576.1L328.7,574.7L328.3,575.1L327.5,574.3L326.9,575.0L328.8,565.2L329.8,564.4L329.7,566.2L331.1,565.4L331.2,566.4L332.0,565.8L332.3,567.2L332.3,565.9L331.5,565.1L332.0,564.8L332.6,566.1L333.1,565.8L332.9,567.2L334.3,566.3L334.7,567.4L333.2,568.0L333.4,569.7L332.4,569.8L332.3,571.1L331.9,570.8L331.4,574.1L330.3,574.2L329.6,575.3L329.3,574.8L328.6,576.1ZM336.5,565.9L336.2,565.4L337.1,565.6L336.5,565.9ZM334.9,567.7L334.7,566.6L336.3,566.4L334.9,567.7ZM346.6,595.5L345.2,594.3L345.7,593.5L345.1,592.8L344.4,593.7L344.0,592.3L345.6,592.8L344.4,590.5L345.9,590.7L345.3,589.1L346.6,588.0L349.2,589.2L348.8,590.6L348.0,590.7L350.1,591.8L348.4,592.3L349.9,593.0L349.5,594.0L347.3,594.0L346.6,595.5ZM339.4,606.1L338.5,605.2L338.1,605.9L337.2,605.8L339.6,604.2L339.4,605.1L340.6,604.9L339.4,606.1ZM346.1,609.7L345.6,609.0L346.6,608.6L347.3,606.7L347.6,608.1L348.5,608.7L347.4,608.5L346.1,609.7ZM337.5,608.1L338.4,606.8L338.9,607.4L337.5,608.1ZM333.6,611.3L332.9,610.8L334.6,607.0L334.3,611.1L333.6,611.3ZM344.2,609.5L344.3,608.7L344.2,609.5ZM349.0,612.6L349.3,610.0L348.6,609.5L350.9,611.3L349.3,611.8L349.0,612.6ZM331.3,619.7L330.3,619.0L330.7,617.9L331.0,618.8L332.3,619.3L332.6,618.5L331.7,618.0L331.8,617.0L332.8,616.5L333.4,617.3L333.3,616.6L333.9,616.7L332.8,615.3L333.7,614.2L334.6,614.2L334.4,611.5L336.9,611.3L337.4,610.1L337.8,611.4L337.9,610.2L339.0,610.3L337.7,609.3L339.2,608.9L339.0,610.9L339.6,611.4L338.5,612.6L337.3,612.5L337.9,613.5L336.0,614.6L336.6,615.8L333.7,618.9L331.3,619.7ZM342.1,611.4L343.1,611.2L343.7,609.8L343.8,612.0L344.6,611.7L345.2,612.3L346.5,611.5L347.4,612.2L348.2,611.6L346.7,615.2L348.7,617.6L348.7,620.4L351.3,621.9L353.4,621.7L353.7,624.0L352.6,624.3L352.4,625.1L357.5,630.4L362.9,632.1L362.0,634.2L359.0,635.3L358.2,636.4L359.3,635.9L360.0,636.9L359.6,637.5L361.8,637.7L364.1,636.2L366.1,636.1L367.9,637.3L369.1,641.1L367.5,646.0L365.7,646.9L364.1,646.7L362.9,648.5L361.1,648.5L361.5,648.9L360.3,649.4L360.3,647.9L359.0,647.0L359.0,644.6L359.5,645.2L360.7,644.6L362.0,643.3L362.4,641.8L361.5,641.3L361.4,639.8L357.7,639.5L355.1,641.0L352.3,640.7L352.4,641.7L350.7,642.9L349.7,645.3L347.4,646.1L347.1,647.2L345.0,649.1L344.4,648.6L343.3,649.1L346.7,645.3L346.9,643.9L346.2,644.2L345.9,643.4L347.3,642.9L347.0,643.4L347.6,643.8L349.1,641.0L348.0,642.3L347.0,642.3L347.5,641.2L346.6,641.1L346.5,639.6L345.2,638.3L345.6,637.5L344.5,637.2L344.1,638.0L342.8,636.7L341.2,631.8L340.5,632.0L340.4,629.5L341.9,628.6L341.4,626.9L342.8,625.7L342.0,625.3L342.8,624.9L342.1,625.0L342.8,624.0L344.8,625.2L344.6,626.6L345.5,626.0L345.9,626.6L344.7,628.0L344.8,629.3L345.9,629.0L345.4,628.7L345.9,627.9L348.0,629.8L347.3,633.0L347.0,631.2L346.5,631.4L346.3,633.3L347.2,633.3L347.3,634.0L346.3,635.2L347.4,635.5L348.5,637.1L348.8,635.7L349.4,636.6L350.0,634.8L350.4,635.5L350.6,635.0L352.0,636.1L352.7,635.9L353.7,637.3L354.9,636.9L353.3,635.5L353.6,634.7L352.1,633.0L352.2,630.9L353.1,630.1L352.1,627.8L350.3,626.2L348.2,627.3L348.9,626.3L347.5,625.9L347.4,625.1L346.2,625.2L346.4,624.1L345.9,625.0L346.7,626.1L346.1,626.5L344.9,624.1L345.8,624.1L345.5,623.1L346.1,623.5L346.4,622.2L347.2,622.2L346.0,621.9L345.0,622.9L345.0,621.2L344.0,621.0L344.2,623.3L342.6,623.0L342.4,623.8L342.2,622.3L343.1,622.7L343.8,622.0L342.9,620.7L341.5,620.6L342.4,619.8L341.7,617.9L341.2,619.6L341.1,618.3L340.3,618.7L340.8,617.9L340.1,618.5L338.5,618.1L339.3,615.5L340.1,615.3L339.9,614.7L341.5,613.8L340.0,613.9L339.2,613.0L339.7,612.7L339.6,610.5L340.8,610.4L340.5,611.0L341.5,610.7L342.1,611.4ZM321.6,615.3L319.8,614.0L322.5,612.7L323.1,614.1L321.6,615.3ZM319.7,615.2L319.6,614.3L319.7,615.2ZM318.7,618.0L317.9,617.2L318.6,616.3L319.4,616.9L320.6,616.6L320.0,616.9L320.2,618.0L319.4,617.5L318.7,618.0ZM321.8,619.4L321.6,616.8L322.3,617.8L321.8,619.4ZM339.3,620.7L339.8,619.3L339.3,620.7ZM317.6,635.3L317.0,634.9L317.1,632.5L317.9,631.9L317.1,630.9L318.0,631.6L318.2,631.2L316.7,630.4L317.1,629.0L316.6,629.7L316.3,628.9L315.5,629.0L316.4,627.6L317.0,628.4L317.7,627.7L317.7,628.7L318.5,627.6L317.7,627.3L317.8,625.3L318.7,624.6L318.8,625.7L319.5,625.6L319.1,624.1L320.5,622.7L320.2,621.1L321.1,619.1L320.7,623.9L319.2,627.4L320.2,627.7L322.5,626.6L323.2,627.0L323.0,628.3L321.2,629.9L319.8,628.6L319.9,630.4L319.0,630.2L319.3,631.3L318.8,631.6L319.3,633.4L318.1,633.1L317.6,635.3ZM337.5,622.0L336.2,621.5L337.8,621.1L337.5,622.0ZM339.9,627.4L339.1,627.1L339.3,626.2L340.0,625.3L341.1,625.6L339.9,627.4ZM340.8,627.2L341.0,626.4L340.8,627.2ZM338.0,628.2L338.6,627.2L338.0,626.9L338.9,627.0L338.0,628.2ZM325.1,627.8L325.3,627.3L324.7,627.2L326.2,626.3L325.1,627.8ZM329.5,627.7L329.9,626.7L330.1,627.5L329.5,627.7ZM323.5,626.8L322.8,626.4L323.7,626.3L323.5,626.8ZM316.4,626.4L317.3,625.9L316.4,626.4ZM341.3,629.1L341.4,628.1L341.3,629.1ZM316.9,627.7L316.9,626.9L316.9,627.7ZM315.1,629.0L315.4,628.1L315.1,629.0ZM339.6,632.4L339.2,630.9L340.2,631.5L339.6,632.4ZM316.4,633.9L316.0,632.7L314.5,633.0L314.2,632.4L314.1,630.9L315.6,632.3L315.6,631.1L314.8,630.8L315.3,629.6L316.8,631.5L316.4,633.9ZM314.1,630.8L312.9,630.0L313.9,630.3L314.5,629.7L314.1,630.8ZM351.6,633.9L351.0,632.6L351.6,633.9ZM312.9,635.7L312.8,634.4L311.9,634.6L312.5,634.4L312.2,633.6L310.4,632.6L311.1,631.9L312.1,632.3L312.7,634.0L312.5,632.2L313.0,633.4L313.2,631.7L313.7,632.3L313.7,634.2L313.0,634.5L312.9,635.7ZM309.8,637.2L308.6,635.5L309.0,633.5L309.9,633.9L309.8,635.3L310.4,635.5L310.0,633.4L311.7,635.7L309.8,637.2ZM305.3,645.7L304.1,644.2L301.3,643.8L300.7,644.5L298.7,643.3L299.3,641.8L299.3,643.1L299.8,642.7L300.5,643.9L301.4,642.8L300.4,643.2L300.2,642.5L301.0,642.2L300.6,641.5L301.5,642.0L300.9,641.4L301.7,641.8L302.0,640.8L300.9,640.3L300.9,639.5L301.5,639.4L301.0,636.5L301.9,635.5L303.2,636.4L302.8,637.7L304.7,637.0L304.2,637.4L304.8,637.3L304.7,637.9L305.5,636.5L306.0,638.2L306.1,637.4L307.0,637.3L305.8,637.0L307.7,635.3L307.5,636.5L308.2,637.1L307.3,637.5L308.5,637.2L308.1,638.1L308.4,637.6L309.3,638.0L308.5,639.4L310.3,643.0L307.5,643.0L307.1,642.1L305.5,642.5L305.1,643.6L306.2,644.9L305.3,645.7ZM314.4,638.6L313.5,638.2L314.6,637.8L314.8,636.3L315.2,638.1L314.4,638.6ZM299.1,638.7L298.8,637.9L299.5,637.4L299.1,638.7ZM345.3,643.6L344.7,642.3L345.3,643.6ZM310.7,640.5L310.8,639.7L310.7,640.5ZM299.7,642.3L300.3,640.3L299.7,642.3ZM344.2,645.4L344.1,644.6L344.2,645.4ZM344.7,650.2L345.2,649.3L344.7,650.2ZM288.6,669.7L287.6,669.5L288.9,669.0L288.6,669.7ZM286.2,671.8L286.5,670.9L286.2,671.8Z"/><path id="jp-05" d="M766.8,280.6L766.3,284.0L767.5,284.8L770.7,284.5L771.2,288.0L770.1,288.3L769.6,294.0L768.3,294.3L766.8,296.7L767.6,297.4L767.1,298.7L767.7,299.5L766.4,301.5L766.7,306.2L768.0,310.8L767.1,311.3L766.1,310.4L764.6,311.4L764.9,313.4L767.1,314.6L764.6,317.6L766.4,319.8L766.5,321.6L765.6,323.8L763.3,325.7L763.3,329.8L761.8,330.9L761.9,332.6L761.0,332.9L760.9,334.1L762.8,336.3L762.5,338.3L763.4,338.5L763.4,339.6L766.1,341.2L765.3,343.1L766.9,344.0L764.8,345.9L765.6,346.6L765.0,348.4L766.9,348.8L767.2,349.7L765.6,352.5L766.0,354.5L764.7,354.9L761.8,357.9L760.4,357.7L758.5,358.8L757.6,357.5L756.3,357.9L754.8,356.7L753.6,353.3L751.6,353.3L751.0,351.8L749.8,351.4L749.2,352.4L747.4,351.5L745.2,351.6L745.0,350.4L743.4,351.0L740.1,349.0L740.0,347.1L738.1,347.6L737.6,348.5L733.1,348.0L734.2,345.6L733.8,343.4L734.6,340.5L736.8,338.7L738.3,333.6L739.2,324.6L738.6,316.7L738.2,317.1L736.6,312.8L733.8,310.8L731.6,311.1L731.3,312.7L727.9,313.1L726.1,309.8L726.6,308.6L725.5,306.6L725.8,306.0L726.6,307.2L729.9,308.2L732.5,306.0L734.7,302.0L735.7,296.5L736.7,295.7L736.1,295.6L736.9,289.9L736.3,288.2L733.6,285.8L735.7,285.4L736.5,286.1L736.5,284.8L738.2,283.7L739.6,285.2L747.7,284.8L748.1,283.4L749.5,282.5L751.2,282.8L751.4,284.1L752.3,283.9L754.5,284.9L755.1,286.3L756.0,286.4L755.5,285.3L756.7,284.6L758.8,286.1L760.6,284.8L761.9,285.4L761.9,284.2L764.3,283.7L764.8,281.4L766.8,280.6ZM738.2,317.5L737.4,316.8L738.2,317.5Z"/><path id="jp-33" d="M515.9,526.7L515.6,528.7L519.0,528.9L520.5,530.2L520.4,532.1L521.3,532.6L520.9,534.2L521.6,535.4L525.0,533.6L525.8,534.3L527.3,534.1L529.4,532.0L530.4,532.0L529.6,533.9L530.7,534.9L530.6,536.7L529.0,536.8L528.2,539.4L527.1,539.7L526.9,541.6L525.0,542.6L525.7,543.8L524.4,546.1L525.9,548.0L524.7,549.0L524.3,550.6L524.6,551.8L525.5,551.8L526.6,553.0L527.2,554.6L526.7,556.8L524.9,556.2L523.7,557.1L521.5,555.7L521.2,556.1L522.2,556.5L521.8,556.9L522.6,557.0L522.0,557.3L523.4,557.1L523.7,557.7L521.5,560.0L520.8,560.0L521.4,560.9L520.7,561.8L519.9,561.6L518.8,562.9L516.4,563.0L516.6,561.9L516.0,562.4L514.0,561.6L512.1,562.2L512.6,562.9L515.4,562.4L515.9,563.4L515.3,564.6L514.2,564.8L514.2,566.4L513.2,565.3L512.5,565.8L512.6,567.1L511.6,567.8L511.4,569.2L507.6,568.0L506.6,568.7L507.1,570.1L505.8,569.7L504.0,565.4L503.8,566.7L503.2,566.8L504.1,568.0L502.6,567.6L502.2,564.7L501.9,566.2L501.0,565.6L498.4,566.9L498.4,567.9L496.3,568.2L494.3,565.6L495.8,568.5L493.7,569.0L494.3,568.2L493.0,568.1L492.7,567.2L492.8,563.6L490.5,560.4L491.4,558.0L490.6,557.6L489.8,555.0L490.7,551.7L487.7,547.6L487.8,544.4L488.9,542.1L486.9,539.8L487.8,538.9L487.8,537.8L492.2,537.1L491.9,534.5L492.5,533.7L494.0,534.4L496.1,533.5L497.0,534.0L496.3,531.8L498.4,531.0L499.9,526.4L503.0,527.8L505.6,527.8L507.5,529.1L508.7,531.3L510.1,530.2L510.0,529.2L512.4,528.6L512.7,527.4L515.9,526.7ZM526.6,557.7L526.1,557.2L525.1,557.5L525.0,556.8L527.1,556.8L527.6,557.5L526.6,557.7ZM524.3,559.0L523.6,558.7L524.2,558.4L524.8,558.7L524.3,559.0ZM522.9,559.3L523.7,558.8L522.9,559.3ZM520.6,562.3L521.9,561.7L520.6,562.3ZM495.1,571.5L494.9,570.7L495.7,570.3L495.1,571.5ZM496.3,572.7L495.2,571.8L496.1,571.0L496.8,571.4L496.3,572.7Z"/><path id="jp-40" d="M384.3,588.1L385.4,587.2L387.3,588.1L388.2,587.0L387.4,588.1L389.6,587.9L389.8,589.2L387.3,590.2L387.0,589.7L386.8,590.3L389.3,589.7L389.1,590.5L390.2,588.4L391.5,588.1L391.2,588.7L391.9,588.6L391.1,589.2L392.0,588.8L392.5,589.3L391.6,589.7L392.6,589.4L392.2,590.0L392.7,590.1L394.3,589.3L395.7,586.8L397.9,586.9L397.1,588.6L397.6,588.9L396.5,589.8L397.1,590.2L396.1,591.3L396.8,591.4L396.5,592.1L395.1,593.0L395.4,594.0L396.7,593.8L395.9,595.2L396.5,594.7L396.2,595.8L397.0,595.6L396.6,596.9L399.7,603.1L401.1,602.8L403.3,603.7L402.7,605.0L403.2,607.0L402.3,607.8L402.6,608.8L396.9,607.9L394.7,608.4L391.5,611.0L390.9,614.1L388.8,615.7L389.6,616.5L389.9,618.1L389.3,618.8L389.9,619.3L388.4,619.7L388.1,620.7L389.4,621.1L388.5,621.9L390.4,623.2L388.8,626.8L385.7,625.8L384.2,624.3L382.6,624.3L382.2,623.4L381.2,626.2L378.2,625.8L377.5,627.1L374.7,628.5L374.9,630.9L370.6,630.7L371.6,630.2L371.1,630.0L371.9,628.3L370.2,624.1L369.5,624.0L369.0,621.0L370.6,620.3L370.4,619.2L371.3,618.4L372.2,618.8L372.9,617.0L373.5,618.4L374.3,617.3L373.9,616.6L375.2,616.2L374.9,615.3L377.2,614.9L377.5,610.4L376.0,610.0L372.5,612.1L372.0,610.6L367.6,607.8L358.5,607.7L358.6,606.3L360.8,605.6L361.6,605.9L362.9,604.7L363.4,603.6L361.5,604.1L362.3,603.2L360.9,603.3L360.6,602.3L362.9,601.9L363.4,600.4L365.1,599.9L365.6,598.7L366.5,599.6L366.2,601.2L367.8,601.5L367.8,602.9L371.7,602.1L372.2,602.7L372.4,601.9L372.7,602.4L373.1,600.4L373.7,600.5L373.1,600.0L374.3,599.6L374.2,598.4L371.8,599.2L371.2,600.2L368.9,599.1L368.7,598.0L369.9,599.4L372.9,598.4L375.8,595.4L375.1,592.4L376.3,592.3L376.6,590.4L378.1,590.4L378.5,589.1L382.8,589.6L384.0,589.1L383.7,588.5L384.3,588.1ZM390.2,587.9L388.5,587.1L390.6,587.0L391.1,587.6L390.2,587.9ZM374.7,588.9L374.1,587.7L375.5,587.7L374.7,588.9ZM377.6,588.7L377.2,587.9L377.6,588.7ZM398.0,593.7L398.2,591.9L398.0,593.7ZM373.1,599.7L373.9,599.0L374.0,599.6L373.1,599.7ZM369.0,601.8L369.0,600.3L369.0,601.8Z"/><path id="jp-21" d="M631.6,480.0L633.0,479.5L635.4,476.0L636.6,476.1L637.2,477.4L638.7,475.8L639.0,476.2L641.0,475.6L641.2,477.5L644.0,475.8L644.6,477.4L646.7,478.1L648.6,477.5L649.7,479.0L651.4,479.1L651.5,480.0L653.6,481.4L653.7,483.9L651.0,487.2L651.8,489.5L650.3,491.0L650.2,492.4L652.5,494.0L651.8,497.0L649.9,498.4L647.4,502.7L645.7,502.1L643.8,502.8L641.7,506.4L642.2,507.2L643.8,507.1L644.5,508.3L646.8,509.0L648.3,512.5L649.7,513.5L650.1,514.2L648.9,516.3L649.8,517.3L651.1,517.4L651.2,519.2L653.4,520.9L653.4,522.7L652.0,523.9L653.5,526.0L651.3,526.1L652.2,527.1L652.4,529.1L650.6,530.3L650.8,531.6L649.2,531.6L645.8,534.5L645.3,533.7L644.2,533.7L644.0,532.7L642.5,532.9L642.6,532.2L641.1,531.3L639.9,531.3L637.1,533.2L635.7,531.7L633.3,530.8L632.5,531.3L632.0,529.2L631.2,529.2L631.2,527.8L628.6,525.9L629.1,525.0L628.0,525.2L627.9,526.2L626.4,527.1L623.1,528.2L620.7,527.6L617.1,533.7L616.8,538.8L615.9,537.2L615.9,538.2L614.8,538.0L611.7,532.9L608.2,534.8L605.7,533.5L606.4,532.8L607.1,527.4L608.3,526.6L607.0,525.2L607.4,522.9L606.1,521.9L606.7,519.9L605.6,518.5L604.6,519.6L603.5,519.1L603.8,515.8L602.5,515.6L602.0,514.0L603.8,511.0L604.0,508.3L605.9,507.3L608.0,508.3L610.0,508.3L610.7,509.5L611.4,507.7L613.2,508.2L616.0,506.8L616.6,507.9L619.0,506.8L621.4,507.2L622.0,505.1L623.1,504.4L622.7,502.6L621.3,501.3L621.5,500.2L620.0,499.5L620.0,498.1L619.1,497.9L619.4,495.3L620.5,494.5L620.1,493.6L621.1,490.9L620.6,490.0L621.8,489.5L623.8,485.9L621.6,483.5L623.1,483.1L623.3,481.2L624.4,481.1L624.6,480.2L624.7,481.4L625.9,480.5L627.4,481.3L628.3,482.7L627.8,484.4L628.5,484.7L631.4,482.0L631.6,480.0Z"/><path id="jp-02" d="M761.9,247.6L763.5,237.8L765.9,234.0L766.0,231.5L769.2,234.3L773.1,235.2L776.1,238.6L778.7,240.0L780.1,240.2L782.4,239.2L785.5,236.2L783.5,248.6L783.8,260.0L785.3,268.3L788.3,277.5L790.0,278.8L791.4,278.0L795.4,282.2L792.1,284.4L792.0,286.0L790.8,287.2L787.1,286.2L785.9,287.1L785.5,286.7L783.9,288.4L782.6,286.5L779.1,289.5L776.5,290.2L775.1,291.2L775.3,292.4L771.9,294.4L771.0,294.3L769.7,292.6L770.1,288.3L771.2,288.0L770.7,284.5L767.5,284.8L766.3,284.0L766.8,280.6L764.8,281.4L764.3,283.7L761.9,284.2L761.9,285.4L760.6,284.8L758.8,286.1L756.7,284.6L755.5,285.3L756.0,286.4L755.1,286.3L754.5,284.9L752.3,283.9L751.4,284.1L751.2,282.8L749.5,282.5L748.1,283.4L747.7,284.8L739.6,285.2L738.2,283.7L736.5,284.8L736.5,286.1L735.7,285.4L733.6,285.8L733.6,280.0L732.7,278.3L731.0,278.5L730.6,277.1L732.1,275.5L733.0,275.6L735.3,270.7L737.1,269.5L739.6,270.7L744.1,267.7L745.7,262.2L746.2,256.1L746.0,253.8L743.5,252.0L745.3,252.1L746.0,251.3L746.4,245.9L751.0,249.4L753.9,247.1L756.8,248.7L758.3,260.2L759.3,264.0L761.0,265.7L763.2,265.4L765.4,262.8L765.7,260.1L764.5,259.7L765.3,259.5L765.9,257.0L768.3,257.7L769.6,259.2L769.3,260.5L772.5,261.3L774.1,263.2L776.1,262.3L777.9,258.3L778.6,251.9L779.6,249.5L777.4,245.0L775.3,243.8L774.3,245.5L775.1,244.6L774.7,245.9L771.7,248.5L769.1,247.9L767.9,249.1L764.6,249.9L763.3,251.5L761.6,250.8L761.9,247.6Z"/><path id="jp-27" d="M567.2,542.4L567.6,544.1L571.8,545.2L571.3,547.0L572.6,547.3L573.6,548.7L575.1,548.3L575.1,547.7L574.2,547.6L574.9,546.0L576.4,546.1L575.9,548.1L577.5,548.1L581.3,554.1L580.7,555.3L580.0,555.1L579.7,557.9L578.5,558.9L577.6,563.3L578.8,564.4L577.5,566.3L578.5,567.3L578.9,570.8L578.0,572.0L578.6,572.8L577.6,573.9L574.7,574.2L571.9,576.1L571.0,574.8L567.6,576.3L565.4,576.1L563.6,577.7L563.2,576.8L560.3,577.2L559.4,578.6L556.5,578.9L555.9,576.8L560.7,575.5L566.0,570.6L566.6,569.2L566.9,569.5L567.1,566.8L567.5,568.0L569.1,566.8L569.7,565.6L568.3,565.4L568.0,563.6L568.7,565.0L568.9,564.1L569.9,565.2L569.9,564.4L570.5,564.3L568.9,563.9L568.9,563.3L569.7,563.7L568.9,562.7L569.6,562.3L569.8,562.9L569.9,561.4L568.5,561.1L568.9,559.1L568.1,559.1L570.4,557.3L568.7,553.2L569.9,549.4L569.4,549.7L568.9,548.9L570.8,548.0L566.2,546.2L566.5,543.4L565.6,542.9L566.4,542.1L567.2,542.4ZM568.4,560.8L567.5,560.3L568.1,560.1L568.4,560.8ZM567.7,561.5L567.2,560.7L568.2,561.0L567.7,561.5ZM568.8,562.5L567.9,561.7L569.5,561.6L568.8,562.5ZM568.9,566.1L569.5,566.0L568.7,567.1L567.9,566.6L568.3,565.7L568.7,566.5L568.9,566.1ZM565.3,570.8L565.5,569.8L565.3,570.8ZM561.3,570.7L562.1,570.7L561.4,571.4L562.6,571.1L561.1,572.3L561.2,571.4L560.2,571.5L561.3,570.7Z"/><path id="jp-20" d="M686.1,448.3L687.6,448.7L688.4,450.3L688.6,453.8L692.4,456.4L692.1,458.1L692.7,458.8L691.7,460.3L692.7,462.1L689.5,463.6L687.1,463.8L686.0,464.5L686.8,465.6L686.4,466.3L683.9,467.2L682.0,472.6L681.9,476.7L684.1,477.3L684.2,478.1L685.8,477.5L686.9,478.1L689.1,477.0L691.2,477.8L691.5,482.8L689.5,484.0L691.0,488.9L690.0,489.5L689.2,488.7L688.8,489.2L689.6,490.6L691.4,491.5L690.9,495.8L694.0,497.8L695.0,500.0L694.7,501.4L693.4,501.9L692.7,503.3L690.7,503.3L690.3,501.5L689.5,501.0L686.4,500.9L685.7,502.1L684.3,502.0L684.1,499.8L681.1,498.7L677.9,504.0L676.2,503.0L674.2,507.1L676.2,508.9L674.1,511.0L675.6,514.2L674.5,517.4L673.5,517.3L672.7,518.5L673.4,519.0L672.6,520.1L672.7,521.2L673.6,521.4L673.5,522.5L671.9,523.6L673.2,526.0L672.8,527.3L670.8,528.8L669.6,528.6L668.2,530.6L664.8,531.9L664.4,532.8L663.5,532.7L662.6,534.6L659.0,535.3L658.4,534.5L655.4,533.9L654.0,535.1L651.5,535.6L650.2,533.0L651.1,531.7L650.6,530.3L652.4,529.1L652.2,527.1L651.3,526.1L653.5,526.0L652.0,523.9L653.4,522.7L653.4,520.9L651.2,519.2L651.1,517.4L649.8,517.3L648.9,516.3L650.1,514.2L648.3,512.5L646.8,509.0L644.5,508.3L643.8,507.1L642.2,507.2L641.7,506.4L643.8,502.8L645.7,502.1L647.4,502.7L649.9,498.4L651.8,497.0L652.5,494.0L650.2,492.4L650.3,491.0L651.8,489.5L651.0,487.2L653.9,483.1L653.6,481.4L651.5,480.0L651.4,479.1L653.2,477.4L654.5,473.4L655.8,473.0L655.2,470.9L657.5,469.6L657.5,461.8L660.4,459.1L662.1,456.4L661.8,454.1L667.2,454.6L667.8,455.8L666.8,458.2L668.7,459.5L671.0,457.1L672.9,457.3L674.6,456.1L676.2,456.1L676.8,457.3L677.5,457.1L677.8,454.0L679.4,453.6L681.3,450.0L686.1,448.3Z"/><path id="jp-44" d="M420.9,600.0L422.3,598.9L423.6,599.5L420.9,600.0ZM417.4,601.6L418.0,601.2L418.6,601.8L419.0,601.0L420.5,602.1L421.0,601.6L423.0,603.7L424.7,607.5L424.4,612.1L422.8,614.7L419.9,614.0L420.7,615.7L418.6,616.2L418.4,617.3L416.8,617.1L416.3,616.2L414.8,616.5L415.0,620.8L417.9,622.1L419.7,621.0L421.2,621.6L421.1,620.9L421.7,621.3L422.0,620.8L424.5,622.7L424.4,622.2L425.4,622.2L425.0,622.7L429.0,622.6L428.8,622.1L430.2,621.7L429.0,623.2L428.7,624.8L427.4,625.7L427.0,627.1L425.8,628.2L427.6,628.8L429.8,628.0L430.4,628.5L427.8,630.1L428.2,630.8L430.1,630.5L430.1,631.3L430.7,631.3L431.3,629.9L431.3,631.2L432.5,631.6L433.7,630.1L434.1,631.9L430.7,632.0L429.0,634.8L431.6,637.1L431.7,636.4L432.3,636.3L432.5,637.4L433.4,636.6L433.3,637.8L434.5,637.5L434.5,636.9L436.5,638.0L434.3,637.7L433.5,639.1L432.3,638.2L432.6,639.8L432.9,639.4L433.7,639.8L431.4,641.8L431.0,641.3L430.7,642.2L431.5,643.1L431.5,642.2L432.2,642.8L432.4,641.8L433.3,642.7L431.7,644.4L431.1,643.6L430.3,644.6L429.7,643.9L429.7,644.6L429.0,644.5L428.6,643.6L428.7,645.5L427.9,644.2L427.7,646.0L428.2,646.4L427.7,646.6L426.6,646.2L427.4,642.7L424.8,642.6L423.9,641.7L422.6,641.9L421.3,644.8L416.8,644.3L415.7,645.3L413.7,644.4L413.9,643.0L412.4,641.1L407.7,642.4L407.1,641.0L404.2,638.7L403.7,634.9L404.5,634.1L403.2,632.3L402.8,630.2L401.3,628.8L400.9,626.1L398.7,623.7L394.5,623.6L393.8,625.6L395.4,628.2L393.8,631.2L388.3,627.1L390.4,623.2L388.5,621.9L389.4,621.1L388.1,620.7L388.4,619.7L389.9,619.3L389.3,618.8L389.9,618.1L389.6,616.5L388.8,615.7L390.9,614.1L391.5,611.0L392.7,610.5L392.8,609.6L396.9,607.9L402.6,608.8L402.3,607.8L403.2,607.0L402.7,605.0L403.3,603.7L405.0,604.5L405.6,604.0L407.2,605.7L412.7,606.2L412.5,605.4L414.3,604.5L415.6,601.9L416.8,601.8L416.6,601.2L417.4,601.6ZM430.4,635.4L429.8,635.0L430.3,633.8L431.2,633.7L430.4,635.4ZM436.1,637.0L435.6,636.4L436.2,635.8L436.1,637.0Z"/><path id="jp-24" d="M611.4,532.9L614.8,538.0L615.9,538.2L615.9,537.2L619.7,541.2L620.7,543.9L619.8,543.3L616.1,545.4L615.4,547.5L616.7,548.1L615.9,548.2L615.1,551.3L611.5,556.8L611.1,560.3L612.4,560.6L611.3,563.5L615.7,564.5L616.5,566.0L620.8,568.4L622.1,568.4L622.3,569.5L622.9,568.5L623.6,570.1L624.7,570.0L624.6,572.2L625.4,571.0L626.5,571.4L626.0,574.7L625.1,573.9L623.9,575.3L622.2,575.1L622.7,575.8L623.5,575.0L623.7,575.6L624.2,575.3L624.2,576.2L625.9,575.2L624.7,576.5L625.5,579.4L624.4,579.6L623.5,580.8L620.4,580.1L619.8,579.7L620.5,579.3L622.1,580.0L622.7,579.6L622.8,580.2L624.0,579.9L624.0,579.3L622.9,579.5L623.0,578.7L624.3,578.9L622.8,578.2L623.5,577.6L621.9,577.9L621.9,577.0L621.4,577.8L622.1,578.4L621.4,578.8L620.2,577.5L620.3,578.6L618.8,578.1L617.5,579.0L617.6,577.4L618.9,576.3L617.6,576.0L617.2,577.1L617.5,576.1L616.3,576.1L616.8,577.1L615.4,577.9L617.0,577.5L614.2,580.2L612.9,579.4L613.8,579.1L613.6,578.5L612.0,579.1L612.0,580.6L611.7,579.3L611.2,580.2L611.3,579.5L610.3,579.3L610.8,581.1L610.2,580.2L610.3,580.9L609.5,581.1L610.4,581.6L609.4,582.0L608.7,581.5L608.8,580.3L607.8,580.7L608.2,582.0L606.2,582.8L606.2,582.0L605.6,582.2L604.8,583.5L604.4,582.4L603.2,583.1L603.8,583.1L603.6,583.9L601.5,584.7L601.8,586.8L602.9,587.0L602.2,588.3L602.0,587.8L601.1,588.5L601.3,587.5L600.4,587.9L601.1,586.3L599.5,587.6L599.9,588.3L598.5,588.7L598.8,589.4L600.5,589.5L600.2,590.5L601.6,591.5L600.1,591.7L601.2,592.1L600.7,592.5L601.2,593.7L599.9,593.8L600.5,593.1L598.9,592.4L599.0,593.1L598.1,593.7L599.3,593.6L599.6,594.9L598.9,595.6L598.4,595.0L597.7,595.3L598.3,596.2L597.6,596.5L596.4,595.7L596.4,597.2L595.7,597.8L595.2,597.1L593.2,599.9L591.0,605.4L589.9,604.8L589.2,605.3L585.0,600.8L584.9,598.8L585.2,598.1L585.7,598.9L586.6,598.5L585.9,596.6L586.5,596.7L586.5,596.0L588.0,596.2L587.5,595.9L587.9,595.1L589.4,595.6L589.8,593.9L590.6,594.4L591.1,593.9L590.5,592.3L591.4,590.6L594.7,591.1L594.3,588.4L595.3,588.4L594.6,586.7L595.2,584.8L594.4,583.1L595.9,580.4L594.5,578.1L595.8,577.4L593.5,573.7L594.6,571.7L598.8,571.1L599.8,569.0L599.3,567.4L597.4,567.7L597.0,565.9L595.4,566.5L592.9,564.8L593.8,562.2L592.6,560.9L593.5,561.4L594.3,560.3L593.1,558.9L593.7,558.1L592.2,556.4L591.9,554.9L594.6,553.8L594.4,552.6L596.0,551.5L594.4,550.7L595.4,549.6L596.1,550.5L598.0,550.4L600.7,551.7L605.1,549.5L605.4,547.8L607.0,546.0L607.2,542.7L608.1,542.0L607.9,538.9L608.6,537.4L606.9,536.2L607.1,534.7L610.7,533.9L611.4,532.9ZM616.6,546.4L616.1,545.5L617.0,545.0L616.6,546.4ZM624.0,568.5L623.5,568.3L624.3,567.5L625.6,567.0L625.7,567.8L624.0,568.5ZM625.0,569.9L624.6,569.2L625.9,568.7L625.0,569.9Z"/><path id="jp-34" d="M471.4,537.2L472.7,536.7L474.8,538.2L476.4,537.0L478.0,538.7L481.1,538.0L482.2,539.0L486.3,538.6L488.9,542.1L487.7,546.9L489.0,550.0L490.7,551.7L489.8,555.0L490.6,557.6L491.4,558.0L490.5,560.4L493.1,564.6L492.6,568.7L491.2,567.2L491.2,568.1L492.4,569.2L492.0,569.8L491.0,569.2L490.2,570.0L490.1,571.8L488.7,572.4L488.2,571.7L486.3,571.4L486.2,570.7L484.8,571.1L485.9,570.1L485.1,568.7L484.4,570.1L480.0,571.3L478.6,570.6L478.3,572.9L476.8,573.6L473.4,573.1L472.2,573.6L471.9,573.1L469.3,575.1L468.8,574.0L468.1,573.9L466.8,575.8L465.7,575.4L465.6,576.4L466.3,576.8L465.8,577.4L463.6,577.5L462.8,578.7L461.9,578.3L461.2,579.0L459.5,577.6L458.3,579.1L457.1,579.2L457.0,577.9L458.0,577.0L456.4,576.2L455.7,572.4L456.9,571.2L454.4,571.6L454.5,571.0L454.1,571.8L452.2,570.9L450.8,571.5L450.7,571.0L445.5,575.6L445.0,576.7L445.9,577.9L444.0,578.1L444.4,576.9L442.1,576.5L441.6,571.9L440.9,572.0L439.5,570.6L440.1,566.6L439.4,564.1L438.6,563.7L442.2,560.0L441.9,558.6L443.8,555.3L442.7,554.1L446.3,552.3L447.2,549.7L449.3,551.2L450.0,550.1L450.7,550.6L452.2,550.2L453.0,551.2L454.6,549.4L455.3,550.3L458.5,550.8L461.6,548.6L463.3,549.2L464.0,548.4L464.7,548.8L464.9,546.9L462.4,545.7L464.5,543.7L466.8,543.4L466.8,542.5L470.4,539.3L470.1,538.7L471.4,537.2ZM483.4,572.7L482.0,572.1L482.0,570.9L484.5,570.3L483.4,572.7ZM481.9,571.8L481.2,571.4L481.6,570.9L481.9,571.8ZM485.7,572.5L485.4,571.4L486.0,571.6L485.7,572.5ZM486.9,573.5L486.9,572.3L488.4,572.2L486.9,573.5ZM479.5,574.3L478.9,573.7L479.8,572.4L479.5,574.3ZM482.5,576.5L480.4,573.9L481.0,572.5L482.1,572.7L482.2,573.7L482.8,573.5L483.3,574.4L482.5,576.5ZM485.3,573.9L486.4,572.8L485.3,573.9ZM492.4,574.0L492.0,573.3L492.4,574.0ZM478.2,575.1L477.6,574.4L478.2,573.5L478.2,575.1ZM453.3,574.1L452.6,573.9L453.7,572.8L453.3,574.1ZM478.3,577.2L477.7,576.4L478.4,574.8L480.6,574.5L480.7,575.9L478.3,577.2ZM447.1,576.9L446.7,575.7L449.5,573.3L450.0,574.7L447.1,576.9ZM471.9,575.8L471.9,574.9L471.9,575.8ZM452.8,582.1L454.0,579.9L453.3,579.0L452.8,580.0L450.9,575.8L452.8,576.0L454.7,578.4L454.6,576.6L453.2,576.2L453.4,574.7L454.9,574.9L455.1,574.3L455.8,575.6L454.5,579.7L455.1,581.6L452.8,582.1ZM470.3,579.3L469.2,578.9L468.8,577.5L470.5,577.3L470.7,576.6L471.2,577.3L472.5,575.6L472.0,578.9L470.3,579.3ZM464.8,581.3L464.8,580.6L462.8,580.0L462.9,579.4L465.7,579.7L465.9,580.4L464.8,581.3ZM461.9,580.6L461.2,580.5L461.4,579.8L462.5,579.0L462.7,579.9L461.9,580.6ZM457.4,584.7L456.8,583.5L453.9,584.4L453.4,583.8L453.8,582.8L455.7,582.0L455.5,580.3L456.7,578.9L457.8,579.9L456.4,581.0L457.4,581.7L457.8,581.3L457.0,583.3L458.4,582.4L459.0,583.1L458.2,583.0L457.4,584.7ZM448.0,579.2L447.8,578.5L448.4,578.6L448.6,579.1L448.0,579.2ZM467.9,581.8L467.1,581.4L467.3,580.7L469.1,579.7L469.8,580.7L467.9,581.8ZM466.1,581.2L466.7,579.9L467.1,580.8L466.1,581.2ZM451.6,581.2L451.2,579.7L452.2,580.1L451.6,581.2ZM456.5,586.2L456.7,584.9L456.5,586.2Z"/><path id="jp-01" d="M1003.1,34.7L1005.4,32.6L1007.0,30.0L1007.1,28.1L1009.6,24.6L1011.6,23.4L1011.8,22.0L1015.0,20.6L1017.8,20.5L1019.9,22.1L1019.8,23.5L1018.1,25.1L1018.3,26.4L1020.0,27.8L1019.2,30.4L1017.3,31.4L1016.0,30.9L1012.2,31.6L1008.5,34.6L1008.3,35.8L1002.3,38.4L995.8,44.4L993.0,49.4L990.6,51.9L988.8,51.9L986.7,52.9L984.7,51.7L984.5,50.6L982.4,51.1L981.0,53.5L982.4,54.8L980.7,58.7L973.1,65.5L970.9,71.2L969.5,72.9L965.4,73.8L961.8,80.5L958.8,79.9L958.8,77.5L961.2,74.5L960.3,73.0L960.6,70.7L961.4,72.6L962.5,73.2L963.5,71.3L962.5,69.3L965.4,70.0L968.1,67.3L968.3,64.3L965.5,63.3L965.0,61.3L966.5,61.0L968.1,62.2L969.3,61.6L970.0,58.6L973.4,56.3L977.6,51.6L977.6,47.3L976.4,46.3L981.7,47.2L983.0,45.9L982.6,44.1L983.8,41.5L986.4,40.2L987.2,40.5L988.0,39.6L988.3,38.1L987.7,37.9L986.6,33.2L988.1,30.0L988.6,29.5L990.0,30.1L992.1,36.0L993.3,37.0L997.6,36.9L1003.1,34.7ZM780.8,59.0L780.5,56.3L782.9,50.7L782.4,46.0L783.7,48.1L787.4,47.8L789.4,46.4L790.4,42.7L792.0,42.1L795.8,47.5L799.9,50.3L807.7,59.4L811.7,62.8L813.3,66.2L814.7,67.3L814.9,69.3L817.5,72.8L829.5,85.5L841.8,93.5L842.7,95.3L849.3,98.6L861.0,102.4L870.9,104.0L872.8,103.5L873.3,106.9L874.5,107.7L875.0,109.4L878.8,111.0L886.1,111.7L891.9,110.5L895.4,106.8L898.6,102.0L904.1,97.0L908.2,89.5L909.7,93.5L908.7,96.7L906.5,100.1L906.3,103.3L903.4,107.8L902.1,111.6L902.2,114.2L901.3,115.7L901.8,118.2L904.8,123.0L911.7,125.2L911.9,126.5L910.1,127.0L909.7,126.5L911.7,125.9L910.7,125.5L911.1,125.0L908.4,125.2L909.0,124.3L906.6,123.9L906.7,125.0L907.6,125.6L910.2,133.8L914.4,139.0L918.1,139.8L919.3,137.5L922.9,133.5L925.4,133.6L926.7,132.7L928.6,133.2L928.5,134.0L924.2,137.1L922.3,137.1L921.4,139.0L920.7,138.8L920.5,141.8L919.6,142.7L919.7,143.5L918.9,143.7L919.5,144.5L918.7,144.9L918.3,143.6L916.5,143.7L911.4,145.0L908.8,146.8L906.9,146.6L905.9,147.7L906.2,149.7L905.2,150.5L905.3,151.4L903.4,152.4L903.3,153.8L901.7,154.8L898.3,154.9L896.8,153.7L897.3,152.0L895.4,151.7L893.8,153.5L893.1,155.6L895.1,157.7L890.1,157.2L884.0,158.0L881.0,157.0L880.7,155.7L877.6,155.8L870.3,159.2L866.1,162.7L855.9,174.5L849.5,185.7L847.3,193.2L848.4,196.5L848.0,202.9L846.3,205.5L846.2,209.2L843.1,206.7L842.0,204.7L837.5,202.4L835.8,200.7L830.6,199.9L828.6,198.5L825.5,197.9L822.3,195.6L818.8,194.5L817.4,193.0L811.3,189.9L808.3,186.7L802.5,185.3L796.8,180.6L792.5,179.3L788.5,179.2L790.6,177.7L788.3,178.4L788.0,179.4L783.9,180.6L779.1,183.7L771.5,189.9L767.5,195.6L765.0,194.1L765.7,193.5L766.8,194.6L766.7,193.7L767.7,193.4L764.5,192.5L762.7,188.3L759.5,186.6L759.3,184.8L756.9,182.7L754.6,182.7L752.6,183.6L750.9,182.7L748.6,182.9L745.5,187.0L743.7,191.0L742.5,196.2L743.0,198.9L746.9,200.5L752.1,205.1L753.6,205.3L757.7,203.8L759.6,204.7L761.8,208.5L764.9,210.8L766.8,213.9L773.5,216.6L773.5,217.7L775.0,219.0L774.0,219.8L772.4,219.9L770.5,222.8L767.6,223.7L765.1,222.0L760.7,220.9L758.2,222.6L758.2,220.5L758.7,221.4L759.0,220.7L758.7,219.5L756.0,219.1L754.8,222.7L752.2,224.8L749.4,225.6L749.4,231.8L748.4,233.6L743.3,235.5L741.3,239.5L739.4,238.1L737.4,238.7L735.2,236.7L733.6,232.5L733.5,229.9L734.2,225.8L736.3,221.9L736.2,220.3L737.4,220.4L737.9,219.5L737.5,217.6L738.4,216.0L738.1,212.2L734.2,205.8L730.6,205.0L729.0,201.5L726.7,200.9L725.3,199.1L725.4,194.7L727.0,192.8L727.7,189.5L726.4,182.3L728.9,179.2L734.0,178.3L734.9,176.7L737.2,175.4L738.6,171.8L740.3,173.2L740.7,174.5L742.7,174.0L742.6,171.6L745.4,167.1L749.8,163.7L749.8,161.7L746.4,156.6L743.9,154.9L742.7,153.0L743.7,148.5L743.2,147.7L745.9,147.8L747.0,147.0L747.1,145.7L748.2,145.6L751.2,148.5L752.9,149.0L753.3,150.5L758.0,152.2L758.6,153.7L766.2,151.3L766.1,153.5L771.3,155.5L775.5,152.8L779.8,146.4L779.8,142.1L777.2,137.5L778.0,134.3L775.8,127.8L777.5,123.9L781.1,122.2L781.9,121.2L783.3,121.1L785.3,118.2L785.4,116.3L786.0,117.0L786.3,112.6L785.1,99.5L788.1,93.8L789.2,83.8L786.2,70.9L780.8,59.0ZM762.5,55.2L760.1,46.4L761.5,47.7L762.4,47.4L762.2,46.4L763.4,48.1L763.3,53.1L762.5,55.2ZM766.5,57.4L768.1,55.7L771.6,57.5L772.7,60.6L771.1,62.7L769.4,63.1L767.3,61.5L765.9,59.2L766.5,57.4ZM923.2,101.5L923.0,99.7L927.0,92.5L930.3,88.5L930.5,85.8L934.0,79.4L935.5,78.9L938.3,81.9L941.2,83.0L946.6,82.1L949.2,80.4L948.1,84.1L946.8,85.4L944.8,84.6L943.1,85.9L942.8,87.5L940.7,89.7L934.7,90.9L933.3,92.5L932.7,94.9L928.9,97.5L927.2,101.7L927.8,103.1L926.6,102.7L925.7,103.5L925.0,107.6L920.8,109.1L918.6,111.8L918.2,121.2L917.9,117.8L914.2,118.7L912.7,113.3L914.1,112.2L915.1,109.8L918.5,107.2L918.6,106.3L923.2,101.5ZM777.4,94.5L776.0,94.3L777.4,93.6L777.4,94.5ZM773.1,95.4L774.1,93.9L773.9,95.2L773.1,95.4ZM955.1,115.6L954.1,113.0L953.6,113.3L953.8,114.1L952.9,113.8L953.5,112.5L952.6,110.8L956.3,109.3L958.0,109.7L957.0,108.5L958.5,107.0L959.5,107.6L959.0,106.8L960.3,107.1L960.2,106.1L963.4,107.8L963.1,109.8L961.1,109.8L960.8,110.5L961.6,110.8L960.2,110.8L959.6,112.4L959.0,112.1L957.6,113.8L956.6,113.3L956.1,115.2L955.1,115.6ZM945.8,120.5L942.8,120.3L944.2,119.1L945.4,119.5L945.8,120.5ZM938.4,128.8L937.9,127.3L936.2,126.0L938.5,124.5L941.1,125.0L940.3,126.4L940.9,127.1L938.4,128.8ZM931.2,131.5L930.8,130.0L929.7,129.8L932.7,129.5L932.3,130.4L933.0,130.9L931.2,131.5ZM936.2,131.7L935.6,130.9L937.5,130.4L937.8,129.3L938.2,130.1L936.2,131.7ZM934.8,133.8L934.4,133.2L935.5,132.9L934.8,133.8ZM774.7,152.6L775.5,151.3L774.7,152.6ZM906.5,150.3L906.5,149.6L908.1,149.8L906.5,150.3ZM898.1,156.8L898.3,155.9L898.1,156.8ZM714.3,209.3L713.3,208.4L712.7,203.3L713.7,201.5L717.0,200.6L717.8,199.7L717.9,200.8L716.5,203.3L716.1,207.1L714.3,209.3ZM711.2,235.8L711.1,234.3L712.3,234.4L712.7,235.1L711.2,235.8Z"/><path id="jp-28" d="M548.6,513.0L548.1,516.3L550.3,518.4L550.7,519.9L554.9,518.7L555.2,520.2L555.2,525.0L553.0,526.0L551.8,524.9L550.9,524.9L550.5,529.5L553.2,530.5L553.6,531.5L555.4,531.8L555.8,533.1L557.4,531.8L559.3,532.1L559.1,533.7L560.7,534.8L560.3,536.3L561.0,536.8L563.6,536.1L564.2,536.5L563.9,537.6L566.1,537.4L566.2,538.1L568.0,538.5L568.3,541.0L567.2,542.4L566.4,542.1L565.6,542.9L566.5,543.4L566.2,546.2L570.8,548.2L568.9,548.9L569.4,549.7L569.9,549.4L568.7,553.2L570.4,557.3L567.7,559.7L567.0,559.8L568.1,558.8L566.9,559.7L566.6,558.5L565.1,557.5L563.7,558.5L560.0,559.3L559.7,561.1L554.9,562.1L551.3,561.0L546.9,557.4L546.0,558.1L545.4,556.3L545.0,556.8L543.1,555.1L540.7,554.5L539.9,555.0L539.9,554.2L539.3,554.9L539.6,554.0L539.2,555.0L538.6,554.7L539.1,554.2L538.3,554.2L538.3,554.9L537.6,554.4L536.3,555.4L536.3,554.7L536.1,555.3L534.7,554.2L532.6,555.4L532.3,552.9L532.2,554.9L531.7,555.5L531.9,554.8L530.9,554.9L530.1,556.6L529.1,556.7L528.1,555.5L528.3,556.0L526.7,556.8L527.2,554.6L526.6,553.0L525.5,551.8L524.6,551.8L524.7,549.0L525.9,548.0L524.4,546.5L525.7,543.8L525.0,542.6L526.9,541.6L527.1,539.7L528.2,539.4L529.0,536.8L530.6,536.7L530.7,534.9L529.7,534.5L529.8,533.1L530.5,532.3L532.8,532.6L534.8,530.7L534.8,527.1L533.3,525.9L533.6,523.7L532.2,522.8L531.9,519.9L531.2,519.3L531.6,517.1L529.7,514.6L532.1,514.4L532.4,513.6L532.8,514.0L536.1,512.1L536.9,513.0L538.4,512.7L539.3,513.7L540.7,512.4L540.8,513.3L541.8,512.5L542.4,513.1L542.7,512.5L544.4,512.7L544.7,512.1L544.9,512.8L546.1,512.4L547.6,513.7L548.6,513.0ZM547.0,558.7L546.9,557.8L547.4,558.0L547.0,558.7ZM547.6,558.4L548.0,559.1L547.2,558.8L547.6,558.4ZM562.4,559.8L562.4,559.0L563.7,558.9L563.8,559.6L562.4,559.8ZM535.1,560.0L533.8,559.1L534.8,558.7L535.1,560.0ZM561.0,561.0L560.4,559.9L561.1,559.5L562.0,561.0L561.0,561.0ZM536.2,560.4L536.3,559.2L536.9,559.9L536.2,560.4ZM532.2,560.8L532.2,559.6L533.3,559.5L533.5,560.6L532.2,560.8ZM534.0,561.1L533.5,560.7L534.0,560.0L534.0,561.1ZM560.8,562.1L560.9,561.5L561.9,561.7L560.8,562.1ZM544.2,571.3L547.9,566.8L552.7,562.8L553.5,564.4L548.4,571.8L548.3,575.3L550.4,579.0L544.3,582.1L541.7,582.5L541.8,581.6L540.6,580.9L541.5,579.4L539.0,579.9L539.7,579.2L538.9,577.4L540.2,575.7L541.9,575.8L544.2,571.3ZM550.6,578.5L550.2,577.5L550.6,578.5ZM544.9,584.1L545.4,583.1L544.9,584.1Z"/><path id="jp-12" d="M734.0,491.8L734.3,491.2L734.9,491.7L738.2,496.5L740.1,497.5L740.3,498.8L745.4,501.6L747.3,501.7L748.6,503.1L753.3,501.5L754.7,501.9L756.5,500.1L759.9,498.8L761.6,499.7L761.0,498.6L761.9,497.2L765.3,499.7L766.6,501.7L769.4,502.7L771.1,505.2L773.9,507.1L775.5,506.8L775.9,508.0L775.7,509.2L774.4,508.3L767.8,509.8L763.0,514.0L759.0,520.9L758.3,524.9L759.4,528.2L758.4,533.9L757.2,534.2L755.7,536.5L755.2,535.7L752.8,537.5L751.6,537.8L751.2,537.0L748.5,537.7L747.2,540.2L743.3,542.8L742.5,546.6L739.9,548.2L738.0,548.1L736.9,546.2L734.7,545.1L734.7,544.6L738.3,544.2L738.6,543.3L738.3,542.3L736.8,541.6L737.6,541.4L737.1,540.1L737.9,539.4L737.2,538.7L737.7,537.3L736.8,535.1L738.7,532.3L737.6,529.5L735.2,528.6L736.7,528.5L737.4,527.7L736.8,527.2L737.3,526.5L738.0,526.8L737.6,525.7L739.6,526.4L739.2,525.9L740.4,525.0L739.5,524.0L739.8,522.9L741.4,522.4L741.5,521.7L742.4,522.1L742.0,521.1L742.6,520.8L743.0,521.9L743.6,520.6L744.2,521.1L743.7,520.3L744.7,519.8L744.2,519.5L745.5,517.4L746.9,517.8L746.6,517.0L747.6,517.0L746.6,516.4L748.0,516.2L746.4,516.2L746.2,515.3L747.5,516.0L747.6,514.9L746.5,515.0L746.9,514.5L746.3,514.1L746.3,514.9L743.6,512.1L742.6,512.3L743.2,512.0L742.5,511.8L742.4,510.5L740.4,511.4L741.0,511.6L740.0,512.3L740.8,513.0L739.2,513.6L739.2,514.2L738.3,513.8L738.7,511.3L739.9,510.3L738.4,507.2L739.0,502.4L736.0,497.4L735.6,494.5L734.0,491.8Z"/><path id="jp-16" d="M653.0,451.1L656.2,453.6L656.6,458.3L657.9,461.0L657.9,466.0L657.5,469.6L655.2,470.9L655.8,473.0L654.5,473.4L653.2,477.4L652.2,477.7L651.6,479.1L649.7,479.0L648.4,477.5L646.7,478.1L644.6,477.4L644.0,475.8L641.2,477.5L641.0,475.6L639.0,476.2L638.7,475.8L637.2,477.4L636.6,476.1L635.4,476.0L633.0,479.5L631.6,480.0L631.4,482.0L628.5,484.7L627.8,484.4L628.3,482.7L627.4,481.3L625.9,480.5L624.7,481.4L624.6,480.2L624.4,481.1L623.3,481.2L623.1,483.1L621.6,483.5L621.3,481.4L622.2,480.7L620.7,477.3L621.8,476.6L621.7,473.6L622.6,471.5L621.6,470.7L621.3,468.1L622.8,465.9L621.5,463.6L623.7,461.7L624.1,457.8L625.5,453.8L626.8,452.6L628.4,452.8L628.9,451.8L630.8,451.8L631.3,452.1L630.6,453.8L628.8,456.3L630.0,458.3L632.5,460.4L633.6,460.6L632.8,461.1L634.3,461.7L634.0,460.7L636.3,461.7L641.2,461.7L644.0,459.4L645.0,456.0L644.7,455.1L645.6,453.5L653.0,451.1Z"/><path id="jp-13" d="M702.9,503.8L703.7,502.5L705.8,501.7L707.3,502.8L712.4,504.3L716.4,504.5L717.3,506.3L719.0,506.5L719.9,507.8L723.8,506.9L725.5,505.5L725.6,506.7L724.6,507.5L725.8,507.1L725.8,508.1L727.3,506.8L728.6,507.4L729.3,505.9L731.2,505.7L732.9,506.6L733.6,505.0L736.0,504.9L736.3,505.9L738.0,505.6L738.2,506.4L738.8,506.3L738.4,507.2L739.9,510.3L738.7,511.3L738.3,513.2L735.7,513.1L735.5,514.0L734.7,513.3L735.3,512.7L734.6,513.1L735.1,512.4L734.0,512.6L733.4,515.6L733.9,516.9L735.0,516.5L736.0,518.0L735.3,518.6L734.0,517.8L731.9,518.2L730.5,515.7L726.5,513.8L725.1,513.3L724.1,515.2L722.7,514.2L722.4,515.2L724.5,516.5L723.8,517.2L723.8,516.2L723.2,516.5L723.7,520.0L723.1,520.1L720.4,516.2L715.9,515.0L714.3,515.3L713.4,513.5L712.0,513.5L711.3,512.5L706.1,510.2L702.9,503.8ZM734.3,513.9L734.9,513.8L735.1,515.0L734.3,513.9ZM736.9,514.4L736.5,513.6L736.9,514.4ZM733.7,515.7L733.9,514.3L734.5,516.0L735.1,516.0L733.7,515.7ZM735.2,515.4L736.3,514.6L735.2,515.4ZM736.1,515.6L736.3,514.7L736.1,515.6ZM723.0,559.1L719.9,558.1L719.8,553.5L722.7,554.8L723.4,557.4L723.0,559.1ZM716.9,567.2L717.1,566.1L717.6,566.6L716.9,567.2ZM717.0,575.8L715.8,574.3L717.1,571.0L717.6,572.1L717.0,575.8ZM714.8,576.5L714.0,576.3L714.7,575.5L715.2,576.0L714.8,576.5ZM711.6,582.8L712.1,580.0L713.1,580.5L713.4,581.8L711.6,582.8ZM726.2,589.1L725.1,587.6L725.7,585.7L727.5,585.3L728.6,586.3L728.5,587.9L726.2,589.1ZM731.1,598.1L729.4,597.6L730.2,595.8L731.5,597.2L731.1,598.1ZM740.4,636.0L737.3,633.3L736.9,630.9L737.9,630.7L739.7,632.5L740.9,632.6L741.4,634.4L740.7,634.6L740.4,636.0ZM735.1,632.8L734.2,631.9L735.1,632.8ZM738.8,664.6L738.3,663.2L739.2,663.8L738.8,664.6ZM763.0,756.8L762.4,756.3L763.2,755.7L763.6,756.1L763.0,756.8ZM844.9,884.7L844.0,884.0L844.7,883.9L844.9,884.7ZM848.0,909.1L847.9,907.1L848.5,908.1L848.0,909.1ZM849.4,910.7L848.0,910.2L848.1,909.2L850.0,910.5L849.4,910.7ZM849.6,914.1L848.1,913.9L848.0,912.4L849.0,911.9L848.6,911.2L848.1,911.8L848.0,911.0L849.4,911.1L850.0,912.1L850.3,913.5L849.7,913.3L849.6,914.1ZM849.0,934.2L846.4,929.3L846.8,930.0L848.1,929.8L847.4,930.6L848.3,930.4L848.2,931.6L849.2,931.7L848.6,932.5L849.0,934.2ZM848.2,937.2L848.1,936.2L848.2,937.2ZM813.3,991.4L813.4,990.0L814.0,991.0L813.3,991.4ZM815.1,1022.5L815.0,1020.5L816.8,1019.4L817.5,1021.0L815.1,1022.5ZM823.8,1046.2L823.8,1045.3L824.3,1045.6L823.8,1046.2Z"/><path id="jp-11" d="M709.4,483.3L716.8,485.7L718.1,484.6L721.8,487.4L726.7,486.4L728.1,487.4L729.4,486.1L730.4,486.6L732.2,492.0L734.0,491.8L735.6,494.5L736.0,497.4L738.4,500.9L738.8,506.3L738.2,506.4L738.0,505.6L736.3,505.9L736.0,504.9L735.1,505.3L734.0,504.8L732.9,506.6L729.9,505.7L728.6,507.4L727.3,506.8L725.8,508.1L725.8,507.1L724.6,507.5L725.6,506.7L725.5,505.5L723.8,506.9L719.9,507.8L719.0,506.5L717.3,506.3L716.4,504.5L712.4,504.3L707.3,502.8L705.8,501.7L700.9,504.6L699.2,503.3L697.9,503.5L696.6,501.8L694.9,501.6L695.0,500.0L694.0,497.8L695.6,495.4L698.3,495.2L699.7,493.3L702.7,492.4L703.1,491.0L704.2,491.4L704.9,490.6L706.3,490.7L707.0,487.5L709.4,483.3Z"/><path id="jp-35" d="M404.8,549.5L404.6,547.6L405.8,548.7L404.8,549.5ZM425.7,554.5L425.8,557.3L426.6,557.8L426.9,559.4L425.9,560.0L425.9,561.6L424.4,562.8L425.6,564.3L425.4,566.1L429.1,566.3L427.8,568.8L428.1,571.1L430.1,572.7L432.1,572.5L433.6,571.2L435.1,572.8L437.3,569.9L436.9,567.1L438.0,565.5L439.6,565.3L440.1,566.6L439.5,570.6L440.9,572.0L441.6,571.9L442.1,576.5L444.4,576.9L444.0,578.1L445.9,577.9L445.3,579.0L445.8,580.8L445.2,581.8L443.9,582.1L444.1,587.6L442.9,589.5L440.3,589.9L441.6,595.0L440.0,595.5L440.2,593.5L437.4,591.7L438.0,591.1L436.6,592.0L435.0,590.7L434.5,591.2L434.3,589.9L430.6,587.6L430.6,586.7L429.4,586.5L427.9,587.5L428.9,588.1L428.5,588.5L426.6,588.0L429.3,585.6L428.4,584.9L427.6,585.5L428.2,584.1L426.1,584.5L426.5,583.5L424.3,584.5L421.9,584.3L420.9,585.5L420.4,584.4L418.1,586.5L415.7,584.4L415.8,585.7L414.7,585.7L415.0,586.7L414.1,586.9L413.5,585.3L412.5,586.8L413.4,585.0L412.6,584.8L413.0,584.0L412.2,583.7L410.8,587.6L407.3,589.4L406.8,588.7L406.0,589.1L406.3,588.0L405.6,588.8L405.2,588.2L403.9,588.7L403.2,587.7L403.8,585.7L402.4,585.3L402.4,585.8L400.9,583.5L399.2,583.2L398.9,582.5L396.9,585.7L394.2,587.4L394.0,588.9L393.3,588.9L393.5,588.4L392.2,587.2L393.9,587.4L394.0,582.1L393.1,581.7L392.2,579.5L392.5,578.3L393.5,578.4L394.9,576.9L395.2,574.9L394.9,573.6L393.0,571.2L394.2,569.8L394.5,567.7L395.4,568.7L398.4,567.4L399.7,567.7L399.0,566.0L396.9,565.7L396.7,566.6L395.8,566.3L397.5,564.1L399.2,565.7L403.5,565.6L404.3,567.8L406.0,566.8L406.6,568.1L407.1,567.1L410.2,567.7L411.5,566.1L414.5,565.9L414.8,565.2L413.9,564.3L414.6,564.8L416.4,563.2L416.3,561.3L416.8,560.7L418.2,561.0L419.6,559.7L420.4,557.3L422.3,557.0L421.7,556.5L422.4,555.2L423.6,555.2L424.1,556.3L424.9,554.7L425.7,554.5ZM409.4,562.2L409.5,561.2L410.0,561.6L409.4,562.2ZM414.4,562.9L414.6,561.8L414.4,562.9ZM406.0,566.7L405.1,566.2L405.1,565.1L408.3,565.0L408.5,566.0L407.1,565.9L407.3,565.4L406.0,566.7ZM392.4,568.6L392.1,567.9L393.4,567.1L393.6,568.0L392.4,568.6ZM389.7,580.2L389.0,579.1L389.7,580.2ZM425.6,585.8L425.7,585.0L427.5,584.6L425.6,585.8ZM425.0,587.7L424.0,586.3L424.7,585.1L424.7,586.7L425.5,587.6L425.0,587.7ZM452.2,587.6L451.5,586.9L452.2,587.6ZM419.1,587.0L419.2,585.9L419.8,585.3L420.5,585.8L419.1,587.0ZM428.8,590.2L428.3,589.2L429.9,589.3L430.3,587.5L431.1,588.5L428.8,590.2ZM443.6,594.5L442.4,591.4L443.0,589.9L443.6,590.2L444.1,589.4L446.8,590.0L448.4,592.6L450.1,591.5L451.3,591.5L451.9,590.4L454.0,590.6L451.4,592.4L450.1,592.3L450.0,594.6L448.2,594.7L448.6,593.5L446.7,592.6L446.0,593.1L446.4,594.0L444.2,593.7L443.6,594.5ZM449.4,590.9L448.8,590.4L449.3,589.9L449.4,590.9ZM436.4,594.4L435.4,594.0L436.2,593.5L436.4,594.4ZM437.3,597.6L436.5,597.2L438.5,595.7L438.4,594.2L440.0,595.6L438.8,595.8L437.3,597.6ZM445.3,598.9L442.1,596.9L444.0,596.5L446.0,598.2L445.3,598.9ZM433.9,598.2L433.3,597.6L434.3,596.8L435.1,597.7L433.9,598.2ZM440.4,601.2L441.1,598.8L441.1,600.5L440.4,601.2Z"/><path id="jp-07" d="M749.8,401.7L752.5,402.9L753.7,402.7L754.5,401.7L757.0,402.9L757.6,405.1L760.4,403.9L765.0,405.4L765.0,408.9L766.6,410.4L769.2,410.5L767.9,409.6L768.3,409.1L771.2,409.5L771.1,405.0L772.7,404.3L773.9,404.6L775.0,407.7L776.0,408.0L777.9,415.4L778.8,424.2L778.9,431.9L778.2,435.0L778.3,436.1L778.8,435.7L778.0,437.0L777.0,448.5L775.4,450.3L774.4,449.9L771.6,451.7L770.5,454.2L764.1,452.2L762.5,450.4L762.2,451.8L763.2,453.7L761.3,454.4L758.6,457.7L757.6,456.3L755.3,455.6L754.7,453.4L753.3,453.1L752.1,451.3L750.1,450.8L750.2,446.9L748.6,447.0L748.1,445.2L746.0,443.2L741.6,441.6L737.2,441.2L734.5,442.3L734.3,444.6L732.5,444.3L731.7,445.3L728.8,446.1L728.5,446.9L725.5,448.2L723.8,449.8L721.0,450.5L719.8,452.6L718.6,453.3L713.8,452.0L712.9,452.5L713.4,447.0L712.5,443.7L713.1,441.4L711.8,439.3L710.9,440.0L709.7,438.0L711.4,435.7L712.1,432.9L712.0,430.8L710.7,429.8L711.4,428.2L716.7,426.8L718.0,427.2L719.1,424.6L724.2,425.1L724.9,424.5L723.4,418.1L726.2,416.2L727.3,413.0L730.3,409.9L729.1,408.2L728.0,408.6L729.0,408.1L730.3,409.8L731.8,409.2L732.8,410.5L734.6,409.3L735.6,410.1L737.5,409.2L739.6,412.4L741.6,411.4L744.2,413.4L746.0,412.3L748.6,412.7L750.8,409.7L749.4,408.5L749.8,401.7Z"/><path id="jp-17" d="M632.6,428.1L633.9,426.9L639.6,424.9L642.2,425.7L642.7,428.7L638.9,429.7L638.3,432.5L639.3,434.2L638.6,435.6L637.6,436.2L635.0,435.6L635.1,436.2L633.1,437.0L632.0,439.9L630.4,440.5L630.3,441.3L627.4,439.9L627.9,439.0L625.9,439.9L626.8,440.4L626.0,440.6L624.7,443.3L625.7,443.7L625.4,444.9L624.2,445.2L624.2,446.8L625.2,447.0L626.3,445.9L628.8,447.9L630.3,445.4L631.5,445.1L631.5,451.7L628.9,451.8L628.4,452.8L626.8,452.6L625.5,453.8L624.1,457.8L623.7,461.7L621.5,463.6L622.8,465.9L621.3,468.5L621.6,470.7L622.6,471.5L621.7,473.6L621.8,476.6L620.7,477.6L622.2,480.7L621.3,481.4L621.6,483.5L623.8,485.9L621.8,489.5L620.6,490.0L621.1,491.3L620.2,493.6L616.7,494.4L616.3,493.3L612.5,490.3L610.9,490.7L610.2,490.1L608.3,491.1L607.2,489.5L604.7,489.4L604.3,486.7L601.0,483.5L603.1,480.9L604.9,480.2L607.5,477.7L613.5,469.8L617.1,464.4L620.0,458.0L620.8,450.1L619.9,449.6L619.1,447.6L619.3,443.8L618.6,443.1L617.7,443.7L617.2,443.1L617.5,440.4L619.6,436.6L619.1,434.9L619.7,433.7L623.6,431.2L626.6,431.4L632.6,428.1ZM627.4,445.9L625.7,443.0L626.7,443.3L626.6,444.0L627.2,443.3L628.5,443.6L628.2,442.8L629.4,443.8L630.9,442.2L631.3,444.4L630.2,444.9L629.3,444.5L627.4,445.9Z"/><path id="jp-18" d="M601.0,483.5L604.3,486.7L604.4,488.8L605.3,489.7L607.2,489.5L609.0,491.1L610.2,490.1L610.9,490.7L612.5,490.3L616.3,493.3L616.7,494.4L620.1,493.6L620.5,494.5L619.4,495.3L619.1,497.9L620.0,498.1L620.1,499.7L621.5,500.2L621.3,501.3L622.3,501.8L623.1,504.4L622.0,505.1L621.4,507.2L619.0,506.8L616.6,507.9L616.0,506.8L613.2,508.2L611.4,507.7L610.7,509.5L610.0,508.3L608.0,508.3L605.9,507.3L604.0,508.3L603.8,511.0L602.2,513.8L598.6,511.6L597.2,511.9L596.6,513.2L598.2,516.7L597.9,518.2L595.8,517.3L595.5,519.9L594.6,519.3L594.1,520.0L592.5,519.8L591.7,521.6L590.7,521.8L589.2,520.2L587.2,525.7L586.1,526.1L585.8,525.3L584.4,525.2L584.1,526.6L583.4,526.5L582.6,527.9L580.0,528.5L577.8,527.3L573.5,526.7L573.4,524.7L572.3,524.5L570.9,522.5L571.5,521.4L570.6,519.8L571.2,518.5L572.0,518.2L571.3,519.5L571.9,519.3L571.7,519.9L572.8,519.3L572.5,518.4L573.2,518.6L572.8,520.8L573.8,521.5L575.3,521.3L578.6,518.8L578.9,519.8L577.4,520.0L577.9,520.6L577.3,521.5L575.5,521.5L580.7,521.8L582.5,519.4L580.8,520.1L580.7,519.2L579.7,518.7L580.6,517.8L582.0,517.9L582.3,519.0L582.6,518.4L583.8,519.9L585.2,519.4L583.9,517.7L585.4,518.1L586.0,516.8L584.5,514.4L585.6,514.7L586.4,516.0L590.8,515.0L590.2,513.8L590.6,511.9L589.8,510.7L592.2,508.7L593.2,511.4L592.5,512.6L593.2,513.7L594.3,513.5L595.4,508.1L591.4,502.8L591.6,500.5L590.1,498.3L592.1,495.9L592.8,492.9L595.4,490.1L596.0,487.8L596.7,488.4L596.5,485.7L598.3,485.5L601.0,483.5Z"/><path id="jp-38" d="M473.4,580.1L472.8,579.2L473.7,578.4L474.6,578.6L474.9,577.3L473.7,576.7L474.7,576.2L474.5,575.4L476.1,575.3L477.3,577.1L477.3,578.9L473.4,580.1ZM483.0,578.2L482.8,576.8L484.0,575.7L484.3,576.4L483.0,578.2ZM482.0,577.4L481.7,576.0L482.0,577.4ZM480.2,578.0L481.0,576.2L481.5,577.3L480.2,578.0ZM482.0,578.7L482.5,577.4L482.0,578.7ZM479.2,580.3L477.2,579.4L477.5,578.2L479.2,577.9L479.1,578.9L480.4,578.9L479.2,580.3ZM472.4,580.4L472.0,579.5L472.4,580.4ZM470.4,580.7L469.6,579.8L470.8,579.9L470.4,580.7ZM476.1,584.2L475.3,584.0L475.8,581.9L476.4,582.2L476.1,580.2L477.5,580.2L478.1,581.3L479.2,580.9L476.1,584.2ZM455.6,605.5L457.6,604.9L460.8,602.4L462.5,600.0L462.1,596.6L463.4,595.1L462.7,594.1L463.1,593.1L464.8,593.1L465.5,588.9L469.5,586.2L471.7,585.9L471.9,584.0L470.6,583.4L471.8,583.6L472.6,582.4L475.9,586.8L477.0,590.5L478.0,592.2L479.1,592.2L479.0,593.0L479.3,592.2L479.6,592.9L482.2,592.5L484.3,591.7L484.4,590.5L484.7,591.4L485.0,590.4L486.9,590.0L487.7,590.7L487.7,590.1L488.3,590.8L490.4,590.3L494.4,591.4L497.8,588.0L500.4,589.0L501.1,589.9L500.7,591.0L501.3,592.8L500.6,593.7L501.1,594.2L499.9,595.8L496.9,596.4L495.7,595.6L493.5,598.0L490.4,597.4L489.4,598.1L488.0,597.6L486.8,598.5L485.0,597.6L483.3,599.9L481.7,599.3L478.6,604.0L478.4,605.5L476.9,605.7L476.9,607.8L475.5,609.4L476.1,610.9L474.1,613.8L471.8,614.4L467.6,613.6L466.0,614.4L467.9,618.9L469.2,619.8L469.3,621.2L465.1,623.2L464.2,626.3L462.9,626.6L460.9,629.4L458.7,627.0L458.0,627.3L458.3,629.6L459.6,630.7L459.3,633.2L460.4,637.2L458.9,639.4L456.6,639.9L456.2,638.8L456.8,638.3L454.7,638.3L455.5,639.1L453.4,638.0L453.0,638.4L453.9,638.8L452.7,639.5L453.8,639.7L452.4,640.4L451.3,638.4L453.0,637.7L451.7,637.0L452.8,636.2L452.7,637.3L455.0,637.6L453.4,636.7L452.8,634.7L452.4,635.1L452.4,633.2L451.1,633.2L451.2,633.8L449.5,632.8L449.6,634.1L448.9,634.8L448.2,634.3L449.8,632.0L450.4,633.0L451.0,632.4L452.4,632.9L452.3,631.6L451.6,631.9L452.4,630.9L451.2,629.6L452.0,629.6L452.0,630.1L453.3,629.4L451.0,629.0L450.7,627.5L452.0,627.4L450.4,625.6L449.8,625.7L451.8,625.6L451.8,626.9L452.7,626.8L452.8,627.8L453.1,626.9L453.9,627.6L453.7,626.4L453.0,626.3L453.9,625.5L455.8,625.2L454.3,623.9L455.2,622.9L453.9,623.4L452.9,622.6L452.3,623.5L452.9,621.9L454.6,620.8L451.0,620.4L450.4,621.1L448.7,620.3L448.9,619.5L450.6,618.6L450.1,618.4L450.7,617.4L449.2,618.3L449.1,617.2L449.8,616.6L449.2,615.7L450.7,614.5L449.4,614.5L450.9,613.6L449.6,613.7L449.8,612.9L449.1,613.6L448.4,612.3L446.9,613.9L446.2,612.8L445.4,614.1L441.6,615.5L440.3,617.3L438.3,617.7L439.0,616.6L438.1,616.5L434.7,618.4L439.1,615.0L439.6,615.8L439.8,615.0L440.8,615.5L440.6,614.2L441.3,614.8L441.3,613.8L443.2,614.1L443.9,613.1L444.6,613.9L444.6,612.8L451.0,609.7L453.5,606.4L455.6,605.5ZM459.0,591.2L458.2,589.9L460.9,587.7L460.2,589.8L460.6,590.6L459.0,591.2ZM456.7,590.2L456.5,588.9L457.7,588.7L456.7,590.2ZM454.9,590.0L455.3,588.8L456.1,588.9L454.9,590.0ZM461.2,590.9L461.4,589.8L461.9,590.9L461.2,590.9ZM456.2,591.9L455.9,591.4L457.2,591.4L456.2,591.9ZM461.5,594.8L461.5,593.5L460.9,593.4L462.9,592.1L461.7,593.3L462.3,594.5L461.5,594.8ZM448.3,617.9L447.7,617.4L448.6,617.5L448.3,617.9ZM454.2,625.3L454.2,624.3L454.8,625.0L454.2,625.3ZM448.0,626.5L447.2,625.5L448.6,624.9L448.0,626.5ZM449.5,626.7L449.3,625.7L450.2,626.2L449.5,626.7ZM445.1,627.5L444.1,626.5L444.6,627.1L445.4,626.7L445.1,627.5ZM445.9,628.2L445.1,627.5L445.9,627.5L445.9,628.2ZM446.3,628.1L447.3,627.8L446.3,628.1ZM450.3,638.3L451.2,637.9L450.3,638.3Z"/><path id="jp-29" d="M580.0,555.1L581.7,557.7L585.2,558.8L586.8,558.7L588.2,556.4L588.2,557.2L590.1,557.2L590.5,558.4L591.6,558.8L593.2,557.3L593.7,558.5L593.1,558.9L594.3,560.3L593.5,561.4L592.6,560.9L593.8,562.2L592.9,564.8L595.4,566.5L597.0,565.9L597.4,567.7L599.3,567.4L599.8,569.0L598.8,571.1L594.6,571.7L593.5,573.7L595.8,577.4L594.5,578.1L595.9,580.4L594.4,583.1L595.2,584.8L594.6,586.7L595.3,588.4L594.3,588.4L594.7,591.1L591.4,590.6L590.1,592.6L587.9,593.2L586.5,594.7L587.1,596.1L586.5,596.0L586.5,596.7L585.4,596.0L585.2,597.6L586.1,598.0L585.7,598.9L584.7,597.2L583.2,596.6L581.2,597.6L578.5,596.7L575.8,598.2L576.0,596.9L575.1,596.4L575.8,594.3L576.6,594.5L576.6,592.5L575.0,591.5L574.5,589.4L572.9,588.5L574.9,585.0L577.1,583.2L577.2,581.8L579.5,582.3L580.4,581.3L579.8,579.6L578.2,578.8L577.4,574.0L578.4,573.2L578.0,572.0L578.9,570.8L578.5,567.3L577.5,566.3L578.8,564.4L577.6,563.3L580.0,555.1Z"/><path id="jp-32" d="M488.3,487.2L488.2,486.5L487.6,486.8L488.2,485.9L485.9,484.7L486.0,481.1L486.8,481.5L486.6,480.5L487.9,479.7L487.7,479.3L489.1,479.3L489.9,478.4L493.6,482.3L492.9,485.3L491.7,485.7L492.0,484.4L491.6,485.4L490.5,485.5L491.6,485.6L491.7,486.9L489.8,486.8L489.5,486.0L489.4,486.8L488.3,487.2ZM478.6,492.6L476.7,491.3L478.0,489.0L479.0,489.4L479.4,488.0L480.9,488.5L481.5,487.8L482.3,488.0L480.3,489.4L480.9,490.6L480.4,491.7L479.0,491.0L479.0,489.5L478.5,490.5L478.0,490.2L478.6,492.6ZM481.2,492.9L481.7,491.3L481.2,489.8L481.9,489.2L482.2,490.0L482.4,489.1L483.1,489.0L483.9,489.8L483.2,490.7L484.5,491.1L482.4,491.2L482.6,492.2L481.2,492.9ZM480.8,494.8L480.2,493.9L480.0,494.5L478.9,494.3L478.7,492.9L481.3,494.1L480.8,494.8ZM487.0,516.2L485.2,517.2L486.0,519.4L488.9,521.7L489.6,523.1L489.7,524.6L488.3,527.2L488.9,529.6L482.9,531.7L484.4,534.1L482.6,535.4L482.1,538.5L480.5,538.0L478.0,538.7L476.4,537.0L474.8,538.2L471.9,536.8L470.1,538.7L470.4,539.3L466.8,542.5L466.8,543.4L464.5,543.7L462.4,545.7L464.9,546.9L464.7,548.8L464.0,548.4L463.3,549.2L461.6,548.6L458.5,550.8L455.3,550.3L454.6,549.4L453.0,551.2L452.2,550.2L450.7,550.6L450.0,550.1L449.3,551.2L447.2,549.7L446.3,552.3L442.7,554.1L443.8,555.3L441.9,558.6L442.2,560.0L439.0,562.8L438.6,563.7L439.7,565.4L438.0,565.5L436.9,567.1L437.3,569.9L435.1,572.8L433.6,571.2L432.1,572.5L430.1,572.7L428.1,571.1L427.8,568.8L429.1,566.3L425.4,566.1L425.6,564.3L424.4,562.8L425.9,561.6L425.9,560.0L426.9,559.4L426.6,557.8L425.8,557.3L425.7,554.5L427.9,554.8L431.7,553.5L432.8,552.4L432.6,551.4L435.7,549.8L438.3,547.3L438.4,546.3L439.5,545.7L440.2,546.2L440.7,544.5L442.6,542.5L447.5,538.9L450.3,538.0L451.3,536.1L451.8,536.3L453.5,534.7L453.3,533.8L454.8,531.8L463.0,527.6L465.0,523.5L464.9,522.3L463.2,521.4L463.4,520.6L465.6,520.4L465.5,519.9L468.0,520.2L467.2,519.1L472.5,517.3L476.3,517.4L476.5,516.0L478.7,516.4L478.9,515.5L479.9,515.3L479.6,514.5L481.4,514.6L481.2,513.4L483.5,515.6L483.8,515.0L485.0,515.5L485.0,514.7L485.1,515.3L486.0,514.6L489.4,515.1L490.1,515.5L487.0,516.2Z"/><path id="jp-03" d="M792.0,286.0L792.1,284.4L795.4,282.2L800.6,290.5L801.3,292.9L800.4,293.1L800.6,294.3L800.0,294.4L803.0,296.4L801.9,297.1L801.5,299.2L806.2,303.8L806.6,305.3L805.8,306.9L807.1,308.6L807.7,313.0L808.5,313.6L808.0,314.4L808.5,314.8L807.5,315.8L808.0,316.1L807.4,317.7L808.0,317.9L808.1,319.8L806.9,322.5L809.6,319.3L809.8,322.9L810.9,323.1L811.5,324.3L811.0,325.6L810.2,325.3L809.4,327.8L808.2,327.6L807.5,328.3L808.4,329.6L810.4,327.4L811.3,327.9L810.8,330.2L808.8,331.1L808.4,330.2L807.1,332.2L807.5,332.9L808.2,332.7L807.9,333.5L806.4,333.7L805.8,334.7L806.4,335.2L809.3,333.8L808.5,335.6L805.5,336.2L807.1,337.8L805.6,337.6L805.8,338.9L808.6,338.7L807.7,339.1L807.9,340.2L807.1,340.0L805.9,341.2L805.1,340.9L805.0,341.5L807.0,342.1L804.1,343.8L805.5,345.2L807.2,345.6L805.8,346.6L803.2,345.5L803.7,347.1L805.6,347.6L803.4,348.1L804.9,349.3L803.1,349.6L802.9,348.8L800.6,350.0L800.4,347.6L799.8,349.8L801.1,351.1L801.0,351.6L799.9,351.1L799.4,352.4L800.6,353.2L799.8,353.9L798.4,352.2L798.8,351.1L798.3,350.8L796.7,351.1L797.1,352.5L794.7,351.4L791.9,351.4L792.1,355.3L790.7,357.3L791.3,358.2L791.2,360.2L790.1,360.4L790.5,361.7L789.5,362.5L788.9,361.0L785.8,360.1L785.6,361.5L784.5,361.4L783.9,363.1L782.5,363.7L781.2,362.1L779.6,361.9L779.6,360.8L778.3,360.4L778.3,359.7L779.7,358.8L779.5,357.7L777.8,357.3L773.9,358.1L772.8,356.6L770.0,355.7L767.9,354.2L766.0,354.5L765.6,352.5L767.2,349.7L766.9,348.8L765.0,348.4L765.6,346.6L764.8,345.9L766.9,343.9L765.3,343.1L766.1,341.2L762.5,338.4L763.0,336.9L761.9,334.5L760.9,334.1L761.0,332.9L761.9,332.7L761.8,330.9L763.3,329.8L763.3,325.7L765.6,323.8L766.5,321.6L766.4,319.8L764.6,317.6L767.1,314.6L764.9,313.4L764.6,311.4L766.1,310.4L767.1,311.3L768.0,310.8L766.8,306.9L766.4,301.5L767.6,299.8L767.1,298.7L767.6,297.4L766.8,296.7L768.0,294.7L770.0,293.0L771.0,294.3L772.6,294.1L775.3,292.4L775.1,291.2L779.1,289.5L782.6,286.5L783.9,288.4L785.5,286.7L785.9,287.1L787.1,286.2L788.4,286.1L790.5,287.4L792.0,286.0Z"/><path id="jp-31" d="M529.7,514.6L531.6,517.1L531.2,519.3L531.9,519.9L532.2,522.8L533.6,523.7L533.3,525.9L534.8,527.1L534.8,530.7L532.8,532.6L531.7,532.9L530.1,531.8L527.3,534.1L525.8,534.3L525.0,533.6L521.6,535.4L520.9,534.2L521.3,532.6L520.4,532.1L520.5,530.2L519.0,528.9L515.6,528.7L515.9,526.7L512.7,527.4L512.4,528.6L510.0,529.2L510.1,530.2L508.7,531.3L507.5,529.1L505.6,527.8L503.0,527.8L499.9,526.4L498.4,531.0L496.3,531.8L497.0,534.0L496.1,533.5L494.1,534.4L492.1,533.9L492.2,537.1L489.0,537.9L488.2,537.4L487.0,539.5L486.2,538.5L481.9,538.8L482.6,535.4L484.4,534.1L482.9,531.7L488.9,529.6L488.3,527.2L489.7,524.6L489.6,523.1L488.9,521.7L486.0,519.4L485.2,517.2L485.9,516.3L487.8,516.1L486.9,516.9L487.6,518.7L489.4,520.1L492.4,521.0L493.7,520.7L494.5,519.1L499.2,517.6L506.9,519.3L513.1,518.9L515.9,517.8L516.8,518.7L520.8,518.4L525.8,517.1L526.9,515.7L529.7,514.6Z"/><path id="jp-36" d="M536.4,581.1L536.5,579.9L537.3,579.5L536.4,581.1ZM537.6,582.5L536.3,581.5L537.6,581.3L537.4,580.4L538.4,580.0L537.6,582.5ZM530.6,581.3L533.2,580.5L535.7,580.8L536.2,580.0L536.1,581.6L538.3,582.8L536.8,585.6L536.1,590.7L537.0,591.5L536.7,592.1L537.8,590.9L540.5,594.9L539.3,597.1L538.4,596.9L537.4,598.1L538.1,597.7L538.0,598.8L540.8,598.6L539.4,599.4L542.1,599.3L537.8,601.7L537.0,601.4L536.3,602.4L535.4,602.2L534.9,603.9L534.5,603.3L534.0,603.7L532.9,605.3L528.1,607.4L526.8,608.7L527.8,608.9L526.8,610.5L525.6,610.7L526.7,610.9L524.7,611.1L524.8,612.5L523.6,611.8L520.1,611.6L518.5,608.4L519.9,607.5L519.6,605.8L515.0,605.3L515.5,603.7L514.3,598.8L512.9,599.1L512.4,598.2L511.5,598.4L510.7,600.1L509.6,600.4L508.0,599.7L506.8,597.8L503.2,598.0L500.1,596.4L501.1,594.2L500.6,593.7L501.3,592.8L500.9,589.6L502.5,589.2L504.8,586.7L506.3,587.0L507.0,585.8L511.1,585.1L512.3,587.1L513.3,587.1L515.4,585.1L518.2,585.2L519.2,583.0L520.2,582.5L523.6,582.3L525.0,583.0L526.8,582.9L527.0,582.3L529.4,583.7L530.3,583.1L530.6,581.3ZM532.0,608.7L531.6,608.0L532.3,608.2L532.0,608.7Z"/><path id="jp-46" d="M360.9,665.6L361.3,663.6L362.7,663.0L363.2,664.3L361.8,665.0L362.0,665.5L361.4,665.0L360.9,665.6ZM359.1,666.6L358.7,665.7L360.0,664.6L359.1,666.6ZM360.4,667.7L360.1,665.8L360.4,667.7ZM358.2,673.0L356.4,671.1L356.7,669.7L355.8,668.5L357.1,667.7L356.5,666.9L358.5,668.0L358.1,666.9L358.5,666.4L358.8,667.2L359.3,666.4L360.2,668.0L359.5,669.5L360.2,669.3L360.4,670.0L358.8,670.9L358.2,673.0ZM375.6,669.6L376.4,669.7L376.7,671.1L380.4,674.0L379.6,675.9L382.4,678.2L383.1,681.3L385.7,682.3L387.4,684.6L385.8,686.5L385.7,687.8L387.8,689.4L390.0,689.8L389.6,691.0L391.0,691.3L391.2,695.3L392.2,696.9L393.3,695.7L395.2,697.4L396.7,696.9L398.1,699.8L397.4,700.8L397.7,702.8L396.5,703.4L396.0,705.2L394.0,704.4L391.8,705.9L390.1,708.2L390.0,709.8L393.5,711.2L392.0,713.0L392.2,713.9L394.0,713.4L394.1,713.9L391.5,716.0L389.6,715.9L388.1,718.0L388.5,718.6L387.6,718.6L387.0,720.0L378.2,723.0L374.6,725.9L375.5,723.2L374.5,722.4L378.5,719.3L379.4,717.5L379.0,716.0L380.5,714.1L381.3,710.2L379.8,706.1L377.5,704.0L377.8,699.6L375.4,699.9L373.7,697.9L375.2,696.3L377.2,696.1L378.7,697.4L378.7,699.4L378.2,699.6L380.5,699.5L383.1,695.2L382.1,693.0L379.9,692.6L379.6,691.7L378.0,691.1L375.5,692.0L374.7,693.4L375.0,694.6L372.5,697.3L372.2,699.7L370.5,701.6L371.1,701.7L370.9,702.5L370.3,702.0L370.9,703.2L370.1,703.4L370.5,705.8L371.7,707.2L371.0,707.2L372.0,710.6L373.9,712.6L375.7,713.1L374.9,714.2L375.1,715.4L374.0,715.6L374.3,716.6L372.5,717.1L372.1,718.1L370.9,717.0L369.5,717.5L369.1,715.2L367.5,713.3L363.1,713.0L360.7,712.0L360.0,713.0L358.5,712.3L357.5,712.7L358.2,711.2L357.1,711.1L357.1,710.4L358.1,709.8L356.1,709.1L357.6,708.1L354.7,704.8L353.7,704.7L354.1,704.2L354.9,704.7L355.9,703.5L356.3,704.5L357.0,705.0L357.3,704.2L357.1,705.1L358.5,705.7L360.4,704.5L363.3,698.6L362.9,693.7L361.5,691.4L360.6,691.1L360.7,690.1L359.2,688.9L358.1,689.1L357.5,686.9L360.1,681.5L359.5,678.0L358.4,677.6L359.9,674.6L359.5,673.3L358.7,673.6L358.9,672.3L360.9,671.3L362.6,671.4L364.2,672.5L366.0,671.3L366.4,669.9L368.0,672.2L369.9,672.7L370.9,671.5L373.4,671.8L373.5,671.2L375.1,671.1L375.6,669.6ZM345.8,685.7L345.7,684.2L344.8,684.3L344.8,683.3L345.7,683.0L345.0,683.1L344.9,682.4L344.5,683.9L343.9,683.5L344.6,681.8L347.4,683.8L347.5,682.6L348.4,682.9L348.1,684.9L347.1,684.7L345.8,685.7ZM344.0,686.8L343.4,685.6L344.5,684.8L344.0,686.8ZM338.8,693.7L338.6,692.9L337.9,693.6L337.0,692.9L336.8,691.7L337.7,691.6L339.0,688.9L341.7,688.3L342.3,685.9L343.0,686.4L342.8,687.3L341.4,689.5L340.1,689.8L339.5,691.4L339.9,692.2L338.8,693.7ZM326.1,713.8L326.8,712.7L326.1,713.8ZM344.6,732.4L343.7,731.1L345.1,730.6L346.0,731.7L344.6,732.4ZM385.0,743.6L384.8,741.9L387.1,739.4L387.7,736.7L390.0,734.2L390.8,736.9L389.2,745.2L385.1,750.9L385.6,754.8L385.0,755.9L383.8,755.7L381.0,757.0L380.5,751.2L381.4,751.3L384.0,747.8L385.0,745.8L385.0,743.6ZM365.2,734.4L363.3,733.8L364.6,733.5L365.2,734.4ZM358.4,735.3L358.1,734.3L359.5,733.7L360.2,734.3L358.4,735.3ZM381.4,739.1L380.8,739.0L381.7,737.2L382.1,738.3L381.4,739.1ZM354.5,751.6L354.1,749.7L353.0,749.8L352.1,748.1L353.9,749.1L354.3,748.7L356.8,750.5L356.6,751.2L354.5,751.6ZM366.5,761.6L363.1,760.7L361.1,754.3L361.3,753.4L362.8,753.4L364.8,751.6L364.9,750.6L366.2,750.8L366.3,750.1L366.3,750.9L368.0,751.3L373.0,755.2L371.9,758.7L369.0,761.2L366.5,761.6ZM341.6,772.9L340.4,771.6L341.2,770.1L342.2,772.4L341.6,772.9ZM325.6,774.3L325.2,773.2L326.0,773.8L325.6,774.3ZM338.7,778.9L337.4,777.3L338.0,775.8L339.7,776.5L340.6,778.7L338.7,778.9ZM324.5,784.4L324.5,783.5L324.5,784.4ZM331.2,788.4L330.5,786.0L332.7,785.3L332.6,786.9L331.2,788.4ZM326.4,795.5L325.7,794.6L326.1,794.0L327.1,795.2L326.4,795.5ZM309.5,809.1L308.3,807.7L309.6,807.7L309.5,809.1ZM298.9,824.0L298.0,823.5L299.1,823.3L298.9,824.0ZM324.4,842.9L324.6,843.5L324.9,842.9L324.6,841.3L325.5,842.7L324.6,839.9L326.0,838.7L326.5,838.6L326.7,840.4L327.6,841.2L327.0,843.7L325.1,844.6L323.0,844.4L320.6,847.4L319.4,847.5L319.7,848.3L317.1,849.2L316.3,848.7L315.3,851.0L313.8,850.7L316.5,852.8L313.5,853.5L313.2,855.2L310.6,854.3L311.7,855.2L312.1,857.2L311.4,855.9L310.3,856.1L308.8,855.1L308.4,852.7L307.6,853.4L309.0,851.6L307.8,851.9L308.3,851.1L307.4,851.0L307.1,852.3L305.9,851.0L304.5,851.3L302.6,849.6L304.5,849.0L305.6,849.9L306.4,849.0L307.2,850.0L308.3,849.7L309.3,848.7L308.1,848.4L307.4,849.0L305.9,847.4L309.9,846.6L311.4,845.0L312.6,845.7L313.5,844.9L313.9,845.7L314.4,845.4L313.8,844.3L316.1,844.7L316.7,843.3L317.3,843.9L317.8,843.4L318.1,844.9L319.2,844.1L319.2,842.2L320.3,841.3L321.0,841.9L323.6,840.8L322.0,843.7L323.4,842.1L323.4,843.7L324.4,842.9ZM336.3,851.3L335.1,850.2L335.3,849.1L336.6,848.9L339.2,846.8L340.1,847.0L340.2,847.7L338.8,848.6L337.6,850.8L336.3,851.3ZM305.7,848.5L304.8,847.3L306.0,847.9L306.3,848.5L305.7,848.5ZM309.4,859.2L309.7,857.6L308.4,857.8L308.1,859.0L306.9,856.7L305.3,858.2L305.6,855.2L304.6,854.9L304.0,852.9L306.6,852.8L305.1,853.2L306.5,854.8L307.3,853.7L307.4,854.5L307.8,854.1L308.0,854.9L306.7,854.9L307.4,855.1L306.6,855.3L306.6,856.1L307.9,855.3L307.2,856.4L308.4,856.1L308.6,857.0L309.0,856.4L309.7,857.4L310.7,856.8L311.1,857.4L309.4,859.2ZM302.2,860.9L302.3,859.2L303.4,858.4L303.6,859.3L302.2,860.9ZM306.7,861.6L304.9,860.7L305.1,859.2L305.9,860.4L307.2,860.3L306.7,861.6ZM290.9,872.1L290.2,868.7L290.9,866.1L291.6,865.6L294.4,865.9L294.4,866.8L293.6,867.2L293.9,869.3L296.6,871.7L295.7,874.2L294.1,876.3L292.0,876.5L289.9,873.6L290.9,872.1ZM275.9,887.3L278.1,887.2L280.8,885.9L281.7,886.3L275.1,890.7L273.4,888.5L274.1,887.0L275.9,887.3ZM268.7,904.6L266.9,903.7L266.9,902.9L268.7,902.4L269.3,904.2L268.7,904.6Z"/><path id="jp-15" d="M722.2,375.2L724.1,376.6L728.6,377.7L728.2,382.7L728.8,382.6L729.9,384.2L733.5,384.9L735.4,388.0L734.0,390.1L731.4,392.1L728.7,391.5L727.6,393.3L728.1,395.8L727.4,397.7L728.1,397.8L728.1,398.6L726.8,399.7L725.8,405.2L727.1,407.8L728.0,408.6L729.1,408.2L730.3,409.9L727.3,413.0L726.2,416.2L723.4,418.1L724.9,424.5L724.2,425.1L719.1,424.6L718.0,427.2L716.7,426.8L711.6,427.9L710.7,429.8L712.0,430.8L712.1,432.9L711.4,435.7L709.7,438.0L710.9,440.0L711.8,439.3L713.1,441.4L712.5,443.7L713.4,447.0L712.8,452.0L712.4,451.1L710.6,451.0L710.2,449.3L707.4,446.6L707.2,448.4L705.6,450.0L702.6,450.5L703.1,454.6L701.1,455.0L701.3,457.4L697.3,458.2L697.4,460.8L696.2,461.7L693.8,460.8L693.0,462.1L691.7,460.3L692.7,458.8L692.1,458.1L692.4,456.4L688.6,453.8L688.4,450.3L687.6,448.7L685.7,448.4L681.3,450.0L679.4,453.6L677.8,454.0L677.5,457.1L676.8,457.3L676.2,456.1L674.6,456.1L672.9,457.3L671.0,457.1L668.7,459.5L666.8,458.2L667.8,455.8L667.2,454.6L661.8,454.1L662.1,456.4L660.4,459.1L657.9,461.2L656.6,458.3L655.9,452.7L654.3,452.5L653.0,451.1L663.2,447.2L668.4,443.8L670.3,441.7L672.1,442.3L674.6,441.9L675.7,441.3L676.0,440.1L675.8,441.2L682.6,434.4L686.9,431.8L689.2,426.7L693.9,420.9L697.1,410.9L705.4,404.2L711.3,402.0L716.3,396.6L719.0,390.2L719.1,382.7L722.2,375.2ZM710.5,381.0L710.5,379.7L712.0,378.5L710.5,381.0ZM675.2,411.8L673.8,410.6L676.2,409.4L676.6,406.2L678.7,404.1L677.2,402.1L676.2,402.3L675.5,404.1L674.5,403.4L674.9,398.3L677.9,393.0L682.0,389.7L682.7,387.1L684.7,386.5L684.0,392.6L682.5,395.3L682.0,398.2L683.8,399.3L686.7,398.1L687.1,399.2L686.2,401.9L683.4,407.2L679.3,410.5L675.2,411.8Z"/><path id="jp-39" d="M496.9,596.4L499.4,595.7L503.2,598.0L506.8,597.8L508.0,599.7L509.6,600.4L510.7,600.1L511.5,598.4L512.4,598.2L512.9,599.1L514.3,598.8L515.5,603.7L515.0,605.3L519.6,605.8L519.9,607.5L518.5,608.4L520.1,611.6L524.5,612.2L520.5,619.5L519.0,626.6L518.0,624.6L516.5,624.1L516.2,622.6L513.8,620.5L513.6,618.5L510.8,617.0L509.9,614.8L503.5,613.3L502.0,612.1L495.6,613.7L495.5,611.2L494.9,612.8L495.9,613.9L487.1,617.3L489.1,617.5L489.7,616.4L491.4,616.8L491.2,617.3L489.2,618.3L486.7,618.2L485.7,620.2L486.0,619.2L484.6,618.9L485.2,618.5L484.6,617.8L484.8,618.6L483.4,619.6L483.5,620.8L482.2,621.6L483.4,622.2L482.5,622.9L483.4,624.7L482.3,627.6L481.1,628.2L481.6,629.6L480.4,628.9L479.5,629.7L478.3,632.1L476.8,633.2L476.3,635.5L474.2,634.8L473.0,635.8L472.2,638.7L472.7,642.1L472.0,643.0L470.3,643.2L470.3,645.2L472.2,646.5L472.8,649.6L470.7,649.2L470.2,647.5L470.9,646.9L470.0,647.5L469.6,646.5L467.5,646.2L466.9,647.3L466.7,646.2L464.0,648.1L463.1,647.3L462.5,647.7L460.8,645.5L457.6,647.1L458.1,645.9L457.5,645.5L458.6,645.3L458.2,644.4L459.4,643.4L458.8,642.8L460.4,641.3L461.4,641.6L460.7,640.9L461.4,640.9L461.0,639.5L458.9,639.4L460.4,637.2L459.3,633.2L459.6,630.7L458.3,629.6L458.0,627.3L458.7,627.0L460.9,629.4L462.9,626.6L464.2,626.3L465.1,623.2L469.3,621.2L469.2,619.8L467.9,618.9L466.0,614.4L467.6,613.6L471.8,614.4L474.1,613.8L476.1,610.9L475.5,609.4L476.9,607.8L476.9,605.7L478.4,605.5L478.6,604.0L481.7,599.3L483.3,599.9L485.0,597.6L486.8,598.5L488.0,597.6L489.4,598.1L490.4,597.4L493.5,598.0L495.2,595.8L496.9,596.4ZM454.0,649.7L454.2,647.3L455.1,649.1L454.0,649.7Z"/><path id="jp-45" d="M413.5,644.2L415.7,645.3L416.8,644.3L421.3,644.8L422.6,641.9L423.9,641.7L424.8,642.6L427.4,642.7L426.7,646.7L428.2,646.4L427.2,646.9L427.3,647.7L426.8,647.5L426.7,648.8L425.8,648.1L424.3,650.1L423.9,649.5L423.2,651.0L422.7,650.8L423.5,651.4L422.7,652.9L420.9,653.5L419.8,655.4L419.7,657.1L420.9,656.7L421.4,658.0L420.0,659.0L418.6,658.3L417.8,660.3L418.7,659.9L419.0,660.5L419.1,659.7L419.2,660.8L418.3,660.9L419.6,661.2L417.8,661.8L417.0,664.8L416.4,665.0L414.6,668.9L409.4,684.4L410.1,684.4L408.9,686.7L408.7,689.1L410.0,690.8L408.6,694.3L408.9,695.4L408.2,695.6L408.8,697.3L406.4,699.7L406.3,700.7L405.9,700.2L405.1,701.4L404.6,703.6L405.2,704.7L404.1,705.3L404.3,707.2L402.7,708.8L403.3,709.9L402.8,710.4L401.7,708.9L399.6,709.3L399.1,707.1L397.7,705.7L396.0,705.3L396.5,703.4L397.7,702.8L397.6,697.7L396.7,696.9L394.7,697.2L393.3,695.7L392.2,696.9L391.2,695.3L391.0,691.3L389.6,691.0L390.0,689.8L387.8,689.4L385.7,687.8L385.8,686.5L387.4,684.6L385.7,682.3L383.1,681.3L382.4,678.2L379.6,676.0L379.7,675.0L381.0,673.7L384.4,674.5L385.8,674.4L387.8,672.9L388.9,673.8L390.5,673.7L392.3,671.3L394.0,672.3L396.0,672.2L395.8,670.2L393.6,667.8L394.1,666.1L395.2,666.4L396.6,664.3L395.2,662.8L395.1,660.4L394.1,660.3L393.3,658.8L393.0,656.3L393.8,655.0L393.6,653.6L395.0,651.9L397.2,652.2L397.7,649.5L398.9,647.9L400.1,648.2L400.4,646.4L402.7,645.0L402.8,643.2L404.1,641.2L407.1,641.0L408.0,642.5L412.4,641.1L413.9,643.0L413.5,644.2ZM425.6,650.5L425.0,649.8L426.1,649.8L425.6,650.5ZM406.4,703.5L406.1,702.1L406.4,703.5Z"/><path id="jp-14" d="M710.1,512.3L711.3,512.5L712.0,513.5L713.4,513.5L714.8,515.5L715.9,515.0L720.4,516.2L723.1,520.1L723.7,520.0L723.2,516.5L723.8,516.2L723.8,517.2L724.5,516.5L722.2,514.9L722.7,514.2L724.1,515.2L725.1,513.3L730.5,515.7L731.9,518.2L734.0,517.8L735.3,518.6L735.5,519.3L734.8,519.4L733.8,518.3L734.3,519.3L733.8,518.7L733.2,519.9L732.8,519.1L733.1,519.9L732.7,520.2L732.8,519.5L731.8,520.7L731.5,520.2L731.2,521.2L729.4,521.6L730.5,522.8L731.0,522.3L731.1,523.2L731.6,522.8L730.9,524.6L729.4,524.2L730.0,524.6L729.1,524.9L730.4,526.0L730.5,527.5L729.2,528.0L730.6,528.1L729.7,529.7L730.7,530.2L731.1,529.4L731.9,531.0L734.0,531.6L732.9,531.9L733.2,533.6L730.7,534.9L731.5,537.0L729.0,537.0L729.0,536.0L729.6,536.0L728.5,534.5L729.5,533.5L727.5,531.8L727.2,529.8L725.9,529.2L723.7,529.8L723.7,529.1L722.2,528.8L714.9,530.3L711.2,532.8L710.9,535.7L711.8,537.5L706.8,537.1L704.7,533.1L706.2,528.6L705.5,525.4L702.3,524.9L703.6,522.5L706.4,521.5L707.1,520.1L708.6,519.9L709.4,519.0L710.2,517.5L709.6,513.2L710.1,512.3ZM733.6,520.6L733.3,520.2L734.9,519.6L733.6,520.6ZM732.5,520.6L733.2,520.1L733.5,521.0L732.4,521.6L731.9,520.9L732.5,520.6ZM731.8,522.3L730.9,521.6L731.7,521.3L731.8,522.3Z"/></svg>